<svg id="AMQ_Interconnect" xmlns="http://www.w3.org/2000/svg" width="1183" height="250" viewBox="0 0 1183 250"><defs><style>.cls-1{fill:#e6e6e6;}.cls-2,.cls-6{fill:none;}.cls-2{stroke:#464646;stroke-miterlimit:10;stroke-width:2px;}.cls-3{fill:#464646;}.cls-4{fill:#fff;}.cls-5{fill:#969696;}</style></defs><title>1</title><rect class="cls-1" width="1183" height="250"/><line class="cls-2" x1="493.24" y1="120.2" x2="201.76" y2="120.2"/><polygon class="cls-3" points="491.05 112.72 504 120.2 491.05 127.68 491.05 112.72"/><polygon class="cls-3" points="203.95 112.72 191 120.2 203.95 127.68 203.95 112.72"/><line class="cls-2" x1="983.24" y1="120.2" x2="688.76" y2="120.2"/><polygon class="cls-3" points="981.05 112.72 994 120.2 981.05 127.68 981.05 112.72"/><polygon class="cls-3" points="690.95 112.72 678 120.2 690.95 127.68 690.95 112.72"/><path class="cls-3" d="M564.79,166.12l3.43,6.86h-2.9L562,166.34h-3.79V173h-2.48v-16.8h7.37c2.93,0,5.4,1.56,5.4,5A4.65,4.65,0,0,1,564.79,166.12Zm-1.71-7.56h-4.89V164h4.89a2.53,2.53,0,0,0,2.86-2.69A2.57,2.57,0,0,0,563.08,158.56Z"/><path class="cls-3" d="M576.36,173.25c-3.17,0-5.55-2.62-5.55-6.55,0-4.13,2.45-6.58,5.62-6.58s5.61,2.57,5.61,6.5C582,170.8,579.6,173.25,576.36,173.25Zm0-10.78c-1.87,0-3,1.66-3,4.15,0,2.76,1.27,4.28,3.14,4.28s3.1-1.9,3.1-4.2C579.55,164.13,578.32,162.47,576.33,162.47Z"/><path class="cls-3" d="M592.65,173v-1.2a3.83,3.83,0,0,1-3.17,1.47c-2.92,0-4.48-1.92-4.48-5.64v-7.23h2.47v7.13c0,2.55,1,3.46,2.59,3.46s2.59-1.18,2.59-3.22v-7.37h2.47V173Z"/><path class="cls-3" d="M604.8,172.67a5,5,0,0,1-2.43.58c-1.75,0-2.83-1.08-2.83-3.34v-7.27h-1.8v-2.26h1.8v-3.6l2.42-1.29v4.89h3.13v2.26H602v6.84c0,1.18.39,1.51,1.3,1.51a4,4,0,0,0,1.83-.5Z"/><path class="cls-3" d="M618.12,167.56h-8.33c.26,2.42,1.63,3.46,3.17,3.46a4.44,4.44,0,0,0,2.73-1l1.47,1.58a5.87,5.87,0,0,1-4.35,1.66c-2.95,0-5.45-2.38-5.45-6.55s2.26-6.58,5.52-6.58c3.58,0,5.31,2.9,5.31,6.31C618.19,166.89,618.14,167.3,618.12,167.56Zm-5.4-5.21c-1.66,0-2.67,1.15-2.88,3.17h5.85C615.57,163.79,614.76,162.35,612.72,162.35Z"/><path class="cls-3" d="M628.1,163a3.67,3.67,0,0,0-1.89-.46c-1.57,0-2.48,1.11-2.48,3.24V173h-2.47v-12.6h2.47v1.2a3.51,3.51,0,0,1,2.88-1.46,3.62,3.62,0,0,1,2.14.53Z"/><path class="cls-4" d="M1010.55,91.5h111V73.6h-111Zm93.33-14.28a.94.94,0,0,1,1.27,0l4.09,4,4-4.09a.9.9,0,1,1,1.27,1.27l-4,4.09,4.09,4a.94.94,0,0,1,0,1.27.82.82,0,0,1-.61.27.74.74,0,0,1-.6-.27l-4.09-4-4,4.09a.86.86,0,0,1-.61.27.72.72,0,0,1-.6-.27.93.93,0,0,1,0-1.28l3.95-4.09-4.09-4A.84.84,0,0,1,1103.88,77.22Zm-23.6,9h9.79a.87.87,0,0,1,0,1.74h-9.79a.87.87,0,0,1,0-1.74Z"/><path class="cls-4" d="M1010.55,166.8h111V156.4h-111Zm7.38-6.17h13.94a.87.87,0,1,1,0,1.74h-13.94a.87.87,0,1,1,0-1.74Z"/><path class="cls-4" d="M1010.55,153.79h111V94.12h-111Zm73.15-34.86L1112,100.09a.87.87,0,1,1,.94,1.47l-28.29,18.84a1.26,1.26,0,0,1-.47.14.93.93,0,0,1-.74-.41A.87.87,0,0,1,1083.7,118.93Zm-5.56,10.86,21.65-14.42a.88.88,0,0,1,.94,1.48l-21.66,14.41a1.16,1.16,0,0,1-.47.14.87.87,0,0,1-.46-1.61Z"/><path class="cls-5" d="M1123.26,70.05H1008.74a1.77,1.77,0,0,0-1.74,1.74v96.82a1.73,1.73,0,0,0,1.74,1.74h114.52a1.73,1.73,0,0,0,1.74-1.74V71.79A1.77,1.77,0,0,0,1123.26,70.05Zm-1.75,96.75h-111V156.4h111Zm0-13h-111V94.12h111Zm0-62.29h-111V73.6h111Z"/><path class="cls-5" d="M1017.93,162.37h13.94a.87.87,0,1,0,0-1.74h-13.94a.87.87,0,1,0,0,1.74Z"/><path class="cls-5" d="M1080.28,88h9.79a.88.88,0,0,0,0-1.75h-9.79a.88.88,0,0,0,0,1.75Z"/><path class="cls-5" d="M1078.67,131.4a.93.93,0,0,0,.47-.14l21.66-14.41a.88.88,0,0,0,.26-1.21.87.87,0,0,0-1.2-.27l-21.66,14.42a.88.88,0,0,0-.27,1.2A.79.79,0,0,0,1078.67,131.4Z"/><path class="cls-5" d="M1084.17,120.54a1,1,0,0,0,.47-.14l28.29-18.84a.87.87,0,1,0-.94-1.47l-28.29,18.84a.87.87,0,0,0-.27,1.2A.93.93,0,0,0,1084.17,120.54Z"/><path class="cls-5" d="M1108,82.45l-4,4.09a1,1,0,0,0,0,1.28,1.31,1.31,0,0,0,.61.27.72.72,0,0,0,.6-.27l4-4.09,4.09,4a1.15,1.15,0,0,0,.6.27.72.72,0,0,0,.6-.27.92.92,0,0,0,0-1.27l-4.09-4,4-4.09a.94.94,0,0,0,0-1.27.92.92,0,0,0-1.27,0l-4,4.09-4.09-4a.9.9,0,0,0-1.27,1.28Z"/><path class="cls-4" d="M60.55,91.5h111V73.6h-111Zm93.33-14.28a.94.94,0,0,1,1.27,0l4.09,4,4-4.09a.9.9,0,0,1,1.27,1.27l-3.95,4.09,4.09,4a.94.94,0,0,1,0,1.27A.82.82,0,0,1,164,88a.74.74,0,0,1-.6-.27l-4.09-4-3.95,4.09a.86.86,0,0,1-.61.27.72.72,0,0,1-.6-.27.93.93,0,0,1,0-1.28l3.95-4.09-4.09-4A.84.84,0,0,1,153.88,77.22Zm-23.6,9h9.79a.87.87,0,0,1,0,1.74h-9.79a.87.87,0,0,1,0-1.74Z"/><path class="cls-4" d="M60.55,166.8h111V156.4h-111Zm7.38-6.17H81.87a.87.87,0,1,1,0,1.74H67.93a.87.87,0,0,1,0-1.74Z"/><path class="cls-4" d="M60.55,153.79h111V94.12h-111Zm73.15-34.86L162,100.09a.87.87,0,1,1,.94,1.47L134.64,120.4a1.26,1.26,0,0,1-.47.14.93.93,0,0,1-.74-.41A.87.87,0,0,1,133.7,118.93Zm-5.56,10.86,21.65-14.42a.88.88,0,1,1,.94,1.48l-21.66,14.41a1.16,1.16,0,0,1-.47.14.87.87,0,0,1-.46-1.61Z"/><path class="cls-5" d="M173.26,70.05H58.74A1.77,1.77,0,0,0,57,71.79v96.82a1.73,1.73,0,0,0,1.74,1.74H173.26a1.73,1.73,0,0,0,1.74-1.74V71.79A1.77,1.77,0,0,0,173.26,70.05Zm-1.75,96.75h-111V156.4h111Zm0-13h-111V94.12h111Zm0-62.29h-111V73.6h111Z"/><path class="cls-5" d="M67.93,162.37H81.87a.87.87,0,1,0,0-1.74H67.93a.87.87,0,0,0,0,1.74Z"/><path class="cls-5" d="M130.28,88h9.79a.88.88,0,0,0,0-1.75h-9.79a.88.88,0,0,0,0,1.75Z"/><path class="cls-5" d="M128.67,131.4a.93.93,0,0,0,.47-.14l21.66-14.41a.88.88,0,0,0,.26-1.21.87.87,0,0,0-1.2-.27L128.2,129.79a.88.88,0,0,0-.27,1.2A.79.79,0,0,0,128.67,131.4Z"/><path class="cls-5" d="M134.17,120.54a1,1,0,0,0,.47-.14l28.29-18.84a.87.87,0,1,0-.94-1.47L133.7,118.93a.87.87,0,0,0-.27,1.2A.93.93,0,0,0,134.17,120.54Z"/><path class="cls-5" d="M158,82.45l-4,4.09a1,1,0,0,0,0,1.28,1.31,1.31,0,0,0,.61.27.72.72,0,0,0,.6-.27l4-4.09,4.09,4a1.15,1.15,0,0,0,.6.27.72.72,0,0,0,.6-.27.92.92,0,0,0,0-1.27l-4.09-4,4-4.09a.94.94,0,0,0,0-1.27.92.92,0,0,0-1.27,0l-4,4.09-4.09-4a.9.9,0,1,0-1.27,1.28Z"/><path class="cls-3" d="M83.84,197.25a7.77,7.77,0,0,1-6-2.71l1.8-1.76a6.1,6.1,0,0,0,4.37,2c2.35,0,3.47-.82,3.47-2.45,0-1.3-1-2-3.79-2.79-3.55-1-5.25-1.94-5.25-4.94s2.44-4.68,5.54-4.68a7.54,7.54,0,0,1,5.5,2.28L87.73,184a5.1,5.1,0,0,0-3.91-1.61c-2,0-2.81,1-2.81,2.09s.77,1.75,3.67,2.62c3.31,1,5.38,2.06,5.38,5.06S88.14,197.25,83.84,197.25Z"/><path class="cls-3" d="M103.38,191.56H95.05c.26,2.42,1.63,3.46,3.17,3.46a4.44,4.44,0,0,0,2.73-1l1.47,1.58a5.87,5.87,0,0,1-4.35,1.66c-2.95,0-5.45-2.38-5.45-6.55s2.26-6.58,5.52-6.58c3.58,0,5.31,2.9,5.31,6.31C103.45,190.89,103.4,191.3,103.38,191.56ZM98,186.35c-1.66,0-2.67,1.15-2.88,3.17H101C100.83,187.79,100,186.35,98,186.35Z"/><path class="cls-3" d="M114.18,197v-7.13c0-2.54-1-3.45-2.59-3.45s-2.6,1.17-2.6,3.22V197h-2.47v-12.6H109v1.2a3.88,3.88,0,0,1,3.17-1.46c2.93,0,4.49,1.92,4.49,5.64V197Z"/><path class="cls-3" d="M127.79,197v-1.2a4.83,4.83,0,0,1-3.29,1.47c-2.71,0-4.85-2-4.85-6.77,0-4.32,2.35-6.36,5-6.36a4.48,4.48,0,0,1,3.17,1.44v-4.8l2.44-1.27V197Zm0-8.92a4,4,0,0,0-3-1.66c-1.78,0-2.74,1.34-2.74,4,0,3.17,1,4.56,2.83,4.56a3.87,3.87,0,0,0,2.86-1.61Z"/><path class="cls-3" d="M144,191.56h-8.32c.26,2.42,1.63,3.46,3.16,3.46a4.44,4.44,0,0,0,2.74-1l1.46,1.58a5.83,5.83,0,0,1-4.34,1.66c-2.95,0-5.45-2.38-5.45-6.55s2.26-6.58,5.52-6.58c3.58,0,5.31,2.9,5.31,6.31A9.55,9.55,0,0,1,144,191.56Zm-5.4-5.21c-1.65,0-2.66,1.15-2.88,3.17h5.86C141.49,187.79,140.67,186.35,138.63,186.35Z"/><path class="cls-3" d="M154,187a3.68,3.68,0,0,0-1.9-.46c-1.56,0-2.47,1.11-2.47,3.24V197h-2.47v-12.6h2.47v1.2a3.48,3.48,0,0,1,2.88-1.46,3.56,3.56,0,0,1,2.13.53Z"/><path class="cls-3" d="M1028.74,190.12l3.44,6.86h-2.91l-3.33-6.64h-3.8V197h-2.47v-16.8H1027c2.93,0,5.4,1.56,5.4,5A4.66,4.66,0,0,1,1028.74,190.12Zm-1.7-7.56h-4.9V188h4.9a2.53,2.53,0,0,0,2.85-2.69A2.57,2.57,0,0,0,1027,182.56Z"/><path class="cls-3" d="M1045.52,191.56h-8.33c.27,2.42,1.63,3.46,3.17,3.46a4.44,4.44,0,0,0,2.74-1l1.46,1.58a5.83,5.83,0,0,1-4.34,1.66c-3,0-5.45-2.38-5.45-6.55s2.25-6.58,5.52-6.58c3.58,0,5.3,2.9,5.3,6.31C1045.59,190.89,1045.54,191.3,1045.52,191.56Zm-5.4-5.21c-1.66,0-2.66,1.15-2.88,3.17h5.86C1043,187.79,1042.16,186.35,1040.12,186.35Z"/><path class="cls-3" d="M1056.58,188a4.12,4.12,0,0,0-3.07-1.54c-1.8,0-3,1.61-3,4.18s1.06,4.25,3,4.25c1.18,0,1.88-.53,2.86-1.56l1.58,1.56a5.36,5.36,0,0,1-4.51,2.35c-3.07,0-5.45-2.59-5.45-6.53,0-4.18,2.45-6.6,5.52-6.6a5.57,5.57,0,0,1,4.47,2.14Z"/><path class="cls-3" d="M1070.93,191.56h-8.32c.26,2.42,1.63,3.46,3.16,3.46a4.44,4.44,0,0,0,2.74-1l1.46,1.58a5.83,5.83,0,0,1-4.34,1.66c-3,0-5.45-2.38-5.45-6.55s2.26-6.58,5.52-6.58c3.58,0,5.31,2.9,5.31,6.31A9.55,9.55,0,0,1,1070.93,191.56Zm-5.4-5.21c-1.65,0-2.66,1.15-2.88,3.17h5.86C1068.39,187.79,1067.57,186.35,1065.53,186.35Z"/><path class="cls-3" d="M1075.45,182.75a1.6,1.6,0,1,1,1.58-1.58A1.6,1.6,0,0,1,1075.45,182.75ZM1074.2,197v-12.6h2.47V197Z"/><path class="cls-3" d="M1086.39,197h-2.47l-4.52-12.6h2.6l2.25,6.84c.41,1.23.77,2.4.94,3.1.14-.7.48-1.87.86-3.1l2.16-6.84h2.62Z"/><path class="cls-3" d="M1103.16,191.56h-8.32c.26,2.42,1.63,3.46,3.16,3.46a4.44,4.44,0,0,0,2.74-1l1.46,1.58a5.83,5.83,0,0,1-4.34,1.66c-2.95,0-5.45-2.38-5.45-6.55s2.26-6.58,5.52-6.58c3.58,0,5.31,2.9,5.31,6.31A9.55,9.55,0,0,1,1103.16,191.56Zm-5.4-5.21c-1.65,0-2.66,1.15-2.88,3.17h5.86C1100.62,187.79,1099.8,186.35,1097.76,186.35Z"/><path class="cls-3" d="M1113.15,187a3.68,3.68,0,0,0-1.9-.46c-1.56,0-2.47,1.11-2.47,3.24V197h-2.47v-12.6h2.47v1.2a3.49,3.49,0,0,1,2.88-1.46,3.56,3.56,0,0,1,2.13.53Z"/><path class="cls-4" d="M655.39,107.11a2.11,2.11,0,0,0-1.09-2.47L634.61,95a2.06,2.06,0,0,0-.94-.22H552.8A2.16,2.16,0,0,0,552,95L529.3,104.6a2.13,2.13,0,0,0-1.2,2.52,2.44,2.44,0,0,0-.11.55v36a2.14,2.14,0,0,0,2.15,2.14H653.36a2.14,2.14,0,0,0,2.15-2.14v-36A2.07,2.07,0,0,0,655.39,107.11Z"/><polygon class="cls-6" points="572.13 117.97 568.93 117.97 568.93 119.41 567.02 119.41 567.02 122.3 574.05 122.3 574.05 119.41 572.13 119.41 572.13 117.97"/><polygon class="cls-6" points="582.8 133.72 586 133.72 586 132.29 587.92 132.29 587.92 129.4 580.89 129.4 580.89 132.29 582.8 132.29 582.8 133.72"/><polygon class="cls-6" points="633.17 99.07 553.24 99.07 538.06 105.53 646.37 105.53 633.17 99.07"/><polygon class="cls-6" points="586.13 117.97 582.93 117.97 582.93 119.41 581.02 119.41 581.02 122.3 588.05 122.3 588.05 119.41 586.13 119.41 586.13 117.97"/><polygon class="cls-6" points="610.88 133.72 614.08 133.72 614.08 132.29 616 132.29 616 129.4 608.97 129.4 608.97 132.29 610.88 132.29 610.88 133.72"/><polygon class="cls-6" points="600.21 117.97 597.01 117.97 597.01 119.41 595.09 119.41 595.09 122.3 602.12 122.3 602.12 119.41 600.21 119.41 600.21 117.97"/><polygon class="cls-6" points="596.81 133.72 600.01 133.72 600.01 132.29 601.92 132.29 601.92 129.4 594.89 129.4 594.89 132.29 596.81 132.29 596.81 133.72"/><polygon class="cls-6" points="641.74 129.35 638.54 129.35 638.54 130.79 636.63 130.79 636.63 133.68 643.66 133.68 643.66 130.79 641.74 130.79 641.74 129.35"/><path class="cls-6" d="M532.28,141.53H651.22V110.34H532.28Zm101.86-13.22h1.92v-1.44h8.16v1.44h1.92v7.86h-12Zm-27.66-11.38h1.92v-1.44h8.16v1.44h1.92v7.85h-12Zm0,10h12v7.86h-1.92v1.44H608.4v-1.44h-1.92Zm-13.87-10h1.91v-1.44h8.17v1.44h1.91v7.85h-12v-7.85Zm-.2,10h12v7.86h-1.92v1.44h-8.16v-1.44h-1.92Zm-13.87-10h1.91v-1.44h8.17v1.44h1.91v7.85h-12v-7.85Zm-.13,10h12v7.86h-1.91v1.44h-8.17v-1.44h-1.91Zm-13.88-10h1.92v-1.44h8.17v1.44h1.91v7.85h-12Zm-.19,10h12v7.86h-1.91v1.44h-8.17v-1.44h-1.91Zm-13.88-10h1.92v-1.44h8.16v1.44h1.92v7.85h-12Zm0,10h12v7.86h-1.92v1.44h-8.16v-1.44h-1.92Z"/><polygon class="cls-6" points="554.86 133.72 558.06 133.72 558.06 132.29 559.98 132.29 559.98 129.4 552.95 129.4 552.95 132.29 554.86 132.29 554.86 133.72"/><polygon class="cls-6" points="558.06 117.97 554.86 117.97 554.86 119.41 552.95 119.41 552.95 122.3 559.98 122.3 559.98 119.41 558.06 119.41 558.06 117.97"/><polygon class="cls-6" points="614.08 117.97 610.88 117.97 610.88 119.41 608.97 119.41 608.97 122.3 616 122.3 616 119.41 614.08 119.41 614.08 117.97"/><polygon class="cls-6" points="568.74 133.72 571.93 133.72 571.93 132.29 573.85 132.29 573.85 129.4 566.82 129.4 566.82 132.29 568.74 132.29 568.74 133.72"/><path class="cls-5" d="M608.4,136.21h8.17v-1.44h1.91v-7.86h-12v7.86h1.92Zm.57-6.81h7v2.89h-1.91v1.43h-3.2v-1.43H609Z"/><path class="cls-5" d="M655.39,107.11a2.11,2.11,0,0,0-1.09-2.47L634.61,95a2.06,2.06,0,0,0-.94-.22H552.8A2.16,2.16,0,0,0,552,95L529.3,104.6a2.13,2.13,0,0,0-1.2,2.52,2.44,2.44,0,0,0-.11.55v36a2.14,2.14,0,0,0,2.15,2.14H653.36a2.14,2.14,0,0,0,2.15-2.14v-36A2.07,2.07,0,0,0,655.39,107.11Zm-102.15-8h79.94l13.19,6.46H538.06Zm98,42.46H532.28V110.34H651.22Z"/><path class="cls-5" d="M562.46,116.93h-1.92v-1.44h-8.16v1.44h-1.92v7.85h12v-7.85ZM560,122.3h-7v-2.89h1.91V118h3.2v1.44H560v2.89Z"/><path class="cls-5" d="M576.53,116.93h-1.92v-1.44h-8.16v1.44h-1.92v7.85h12v-7.85Zm-2.48,5.37h-7v-2.89h1.91V118h3.2v1.44h1.92v2.89Z"/><path class="cls-5" d="M590.53,116.93h-1.91v-1.44h-8.17v1.44h-1.91v7.85h12v-7.85Zm-2.48,5.37h-7v-2.89h1.92V118h3.2v1.44h1.91v2.89Z"/><path class="cls-5" d="M604.6,116.93h-1.91v-1.44h-8.17v1.44h-1.91v7.85h12v-7.85Zm-2.48,5.37h-7v-2.89H597V118h3.2v1.44h1.91Z"/><path class="cls-5" d="M618.48,116.93h-1.92v-1.44H608.4v1.44h-1.92v7.85h12ZM616,122.3h-7v-2.89h1.91V118h3.2v1.44H616Z"/><path class="cls-5" d="M646.14,128.31h-1.92v-1.44h-8.16v1.44h-1.92v7.86h12Zm-2.48,5.37h-7v-2.89h1.91v-1.44h3.2v1.44h1.92Z"/><path class="cls-5" d="M594.33,136.21h8.16v-1.44h1.92v-7.86h-12v7.86h1.92Zm.56-6.81h7v2.89H600v1.43h-3.2v-1.43h-1.92Z"/><path class="cls-5" d="M580.32,136.21h8.17v-1.44h1.91v-7.86h-12v7.86h1.91Zm.57-6.81h7v2.89H586v1.43h-3.2v-1.43h-1.92Z"/><path class="cls-5" d="M566.25,136.21h8.17v-1.44h1.91v-7.86h-12v7.86h1.91v1.44Zm.57-6.81h7v2.89h-1.92v1.43h-3.2v-1.43h-1.91Z"/><path class="cls-5" d="M552.38,136.21h8.16v-1.44h1.92v-7.86h-12v7.86h1.92Zm.57-6.81h7v2.89h-1.91v1.43h-3.2v-1.43H553Z"/></svg>