<?xml version="1.0" encoding="UTF-8" standalone="no"?>
<svg
   xmlns:dc="http://purl.org/dc/elements/1.1/"
   xmlns:cc="http://creativecommons.org/ns#"
   xmlns:rdf="http://www.w3.org/1999/02/22-rdf-syntax-ns#"
   xmlns:svg="http://www.w3.org/2000/svg"
   xmlns="http://www.w3.org/2000/svg"
   viewBox="0 0 1754.16 1060.0453"
   height="1060.0453"
   width="1754.16"
   xml:space="preserve"
   id="svg2"
   version="1.1"><metadata
     id="metadata8"><rdf:RDF><cc:Work
         rdf:about=""><dc:format>image/svg+xml</dc:format><dc:type
           rdf:resource="http://purl.org/dc/dcmitype/StillImage" /><dc:title></dc:title><dc:subject><rdf:Bag><rdf:li>Banana</rdf:li><rdf:li>Monkey</rdf:li><rdf:li>Watermelon</rdf:li></rdf:Bag></dc:subject></cc:Work></rdf:RDF></metadata><defs
     id="defs6"><clipPath
       id="clipPath22"
       clipPathUnits="userSpaceOnUse"><path
         id="path20"
         d="M 0,795.034 H 1315.618 V 0 H 0 Z" /></clipPath><clipPath
       id="clipPath50"
       clipPathUnits="userSpaceOnUse"><path
         id="path48"
         d="M 0,795.034 H 1315.618 V 0 H 0 Z" /></clipPath></defs><g
     transform="matrix(1.3333333,0,0,-1.3333333,0,1060.0453)"
     id="g10"><path
       id="path12"
       style="fill:#004153;fill-opacity:1;fill-rule:nonzero;stroke:none"
       d="M 925.759,509.049 H 427.086 v 190.738 h 498.673 z" /><path
       id="path14"
       style="fill:#a30000;fill-opacity:1;fill-rule:nonzero;stroke:none"
       d="M 1282.234,27.58 H 34.154 v 242.557 h 1248.08 z" /><g
       id="g16"><g
         clip-path="url(#clipPath22)"
         id="g18"><g
           transform="translate(746.4301,699.7864)"
           id="g24"><path
             id="path26"
             style="fill:#ffffff;fill-opacity:1;fill-rule:nonzero;stroke:none"
             d="m 0,0 c 0,-38.664 -31.343,-70.007 -70.007,-70.007 -38.664,0 -70.008,31.343 -70.008,70.007 0,38.665 31.344,70.008 70.008,70.008 C -31.343,70.008 0,38.665 0,0" /></g><g
           transform="translate(746.4301,699.7864)"
           id="g28"><path
             id="path30"
             style="fill:none;stroke:#004153;stroke-width:3;stroke-linecap:butt;stroke-linejoin:miter;stroke-miterlimit:10;stroke-dasharray:none;stroke-opacity:1"
             d="m 0,0 c 0,-38.664 -31.343,-70.007 -70.007,-70.007 -38.664,0 -70.008,31.343 -70.008,70.007 0,38.665 31.344,70.008 70.008,70.008 C -31.343,70.008 0,38.665 0,0 Z" /></g><path
           id="path32"
           style="fill:#b1dbe6;fill-opacity:1;fill-rule:nonzero;stroke:none"
           d="m 792.983,526.029 h -233.12 v 46.534 h 233.12 z" /></g></g><g
       id="text38"
       style="font-variant:normal;font-weight:bold;font-stretch:normal;font-size:33.50550079px;font-family:Interstate;-inkscape-font-specification:Interstate-Bold;writing-mode:lr-tb;fill:#fcfcfc;fill-opacity:1;fill-rule:nonzero;stroke:none"
       transform="matrix(1,0,0,-1,573.6567,586.7529)"
       aria-label="LINUX HOST
RADOS CLUSTER"><path
         id="path569"
         style=""
         d="M 19.466696,0 V -4.6237591 H 7.7062652 V -23.453851 H 3.0154951 V 0 Z" /><path
         id="path571"
         style=""
         d="m 28.814731,0 v -23.453851 h -4.69077 V 0 Z" /><path
         id="path573"
         style=""
         d="m 54.178393,0 v -23.453851 h -4.623759 v 9.917629 c 0,1.306714 0.06701,4.2551983 0.06701,5.1263413 -0.301549,-0.603099 -1.072176,-1.7757913 -1.641769,-2.6469343 L 39.670512,-23.453851 H 35.180774 V 0 h 4.62376 v -10.319694 c 0,-1.306715 -0.06701,-4.255199 -0.06701,-5.126342 0.301549,0.603099 1.072176,1.775792 1.641769,2.646935 L 49.990206,0 Z" /><path
         id="path575"
         style=""
         d="m 79.039476,-10.3532 v -13.100651 h -4.69077 v 13.167662 c 0,3.7526163 -1.842803,6.0644959 -4.824792,6.0644959 -2.98199,0 -4.791287,-2.3788906 -4.791287,-6.1315069 v -13.100651 h -4.69077 v 13.167662 c 0,6.8351224 3.819627,10.65474951 9.482057,10.65474951 5.963979,0 9.515562,-3.92014361 9.515562,-10.72176051 z" /><path
         id="path577"
         style=""
         d="m 103.40132,0 -7.471726,-11.994969 7.136676,-11.458882 h -5.595423 l -1.775792,3.015496 c -0.871143,1.474242 -2.110846,3.71911 -2.546418,4.590253 -0.435571,-0.871143 -1.70878,-3.183022 -2.546418,-4.590253 l -1.775791,-3.015496 H 83.231009 L 90.334175,-11.994969 82.895954,0 h 5.595419 l 2.110846,-3.5515831 c 0.871143,-1.474242 2.144352,-3.7191106 2.546418,-4.5902536 0.435572,0.871143 1.708781,3.1830226 2.546418,4.5902536 L 97.805902,0 Z" /><path
         id="path579"
         style=""
         d="m 136.63878,0 v -23.453851 h -4.69077 v 8.979475 h -9.61608 v -8.979475 h -4.69077 V 0 h 4.69077 v -9.8506172 h 9.61608 V 0 Z" /><path
         id="path581"
         style=""
         d="m 161.80142,-11.726925 c 0,-7.136672 -3.78612,-12.095486 -10.18567,-12.095486 -6.39956,0 -10.18568,4.958814 -10.18568,12.095486 0,7.1366714 3.78612,12.09548551 10.18568,12.09548551 6.39955,0 10.18567,-4.95881411 10.18567,-12.09548551 z m -4.82479,0 c 0,4.1881873 -1.57476,7.4382209 -5.36088,7.4382209 -3.78613,0 -5.36088,-3.2500336 -5.36088,-7.4382209 0,-4.188188 1.57475,-7.438221 5.36088,-7.438221 3.78612,0 5.36088,3.250033 5.36088,7.438221 z" /><path
         id="path583"
         style=""
         d="m 183.28179,-7.1031662 c 0,-5.0928358 -4.12118,-6.3660448 -7.84029,-7.2371878 -3.71911,-0.871143 -4.72427,-1.34022 -4.72427,-2.814462 0,-1.038671 0.83763,-2.110847 3.35055,-2.110847 2.14435,0 3.81962,0.871143 5.32737,2.412396 l 3.38406,-3.283539 c -2.21137,-2.31188 -4.89181,-3.685605 -8.54391,-3.685605 -4.62375,0 -8.37637,2.613429 -8.37637,6.868628 0,4.623759 3.01549,5.997484 7.3377,7.0026493 4.42273,1.005165 5.22686,1.675275 5.22686,3.1830225 0,1.7757916 -1.30671,2.5464181 -4.08767,2.5464181 -2.24487,0 -4.35571,-0.7706265 -5.99748,-2.6804401 l -3.38406,3.0154951 c 1.77579,2.6134291 5.19335,4.25519861 9.1135,4.25519861 6.39955,0 9.21401,-3.01549511 9.21401,-7.47172671 z" /><path
         id="path585"
         style=""
         d="m 204.02504,-18.830091 v -4.62376 h -18.15998 v 4.62376 h 6.73461 V 0 h 4.69077 v -18.830091 z" /><path
         id="path587"
         style=""
         d="m -34.61118,535.71942 -4.489737,-9.11349 c 2.981989,-1.1727 4.489737,-3.38406 4.489737,-6.90214 0,-4.99232 -3.6521,-7.43822 -8.074826,-7.43822 h -10.922793 v 23.45385 h 4.69077 v -8.44338 h 4.724276 l 4.188187,8.44338 z m -4.824792,-15.91511 c 0,2.04383 -1.172693,3.049 -3.35055,3.049 h -6.131507 v -6.03099 h 6.131507 c 2.077341,0 3.35055,0.87114 3.35055,2.98199 z" /><path
         id="path589"
         style=""
         d="m -9.4116941,535.71942 -8.9124629,-23.45385 h -4.556748 l -8.979475,23.45385 h 5.025825 l 1.842803,-5.22686 h 8.577408 l 1.842803,5.22686 z m -8.6109139,-9.68309 h -5.36088 l 1.507748,-4.2552 c 0.469077,-1.37372 0.938154,-2.78095 1.172692,-3.6521 0.234539,0.87115 0.703616,2.27838 1.172693,3.6521 z" /><path
         id="path591"
         style=""
         d="m 13.941639,523.9925 c 0,-8.57741 -4.9588141,-11.72693 -11.6599143,-11.72693 H -5.05598 v 23.45385 h 7.0026497 c 6.0309902,0 11.9949693,-3.48457 11.9949693,-11.72692 z m -4.8247921,0 c 0,4.2887 -2.2448686,7.17017 -7.1701772,7.17017 H -0.36520985 V 516.82232 H 2.1141972 c 4.9588141,0 7.0026497,2.37889 7.0026497,7.17018 z" /><path
         id="path593"
         style=""
         d="m 37.76405,523.9925 c 0,-7.13668 -3.786122,-12.09549 -10.185672,-12.09549 -6.399551,0 -10.185673,4.95881 -10.185673,12.09549 0,7.13667 3.786122,12.09548 10.185673,12.09548 6.39955,0 10.185672,-4.95881 10.185672,-12.09548 z m -4.824792,0 c 0,4.18818 -1.574759,7.43822 -5.36088,7.43822 -3.786122,0 -5.360881,-3.25004 -5.360881,-7.43822 0,-4.18819 1.574759,-7.43823 5.360881,-7.43823 3.786121,0 5.36088,3.25004 5.36088,7.43823 z" /><path
         id="path595"
         style=""
         d="m 59.244424,528.61626 c 0,-5.09284 -4.121176,-6.36605 -7.840287,-7.23719 -3.71911,-0.87115 -4.724275,-1.34022 -4.724275,-2.81447 0,-1.03867 0.837637,-2.11084 3.35055,-2.11084 2.144352,0 3.819627,0.87114 5.327374,2.41239 l 3.384056,-3.28353 c -2.211363,-2.31188 -4.891803,-3.68561 -8.543903,-3.68561 -4.623759,0 -8.376375,2.61343 -8.376375,6.86863 0,4.62376 3.015495,5.99748 7.337705,7.00265 4.422726,1.00516 5.226858,1.67527 5.226858,3.18302 0,1.77579 -1.306715,2.54642 -4.087671,2.54642 -2.244869,0 -4.355715,-0.77063 -5.997485,-2.68044 l -3.384056,3.01549 c 1.775792,2.61343 5.193353,4.2552 9.113497,4.2552 6.39955,0 9.214012,-3.01549 9.214012,-7.47172 z" /><path
         id="path597"
         style=""
         d="m 91.677753,517.09036 c -1.474242,-3.049 -4.154682,-5.19335 -8.577408,-5.19335 -6.131507,0 -10.420211,4.95881 -10.420211,12.09549 0,7.40471 4.121177,12.09548 10.252683,12.09548 4.255199,0 7.069661,-1.97682 8.677925,-5.29387 l -3.953649,-2.34538 c -1.239703,2.07734 -2.479407,2.98199 -4.590254,2.98199 -3.518077,0 -5.561913,-3.21653 -5.561913,-7.43822 0,-4.35572 2.01033,-7.43823 5.528408,-7.43823 2.110846,0 3.451067,0.93816 4.288704,2.54642 z" /><path
         id="path599"
         style=""
         d="m 112.81972,535.71942 v -4.62376 h -11.76043 v -18.83009 h -4.690768 v 23.45385 z" /><path
         id="path601"
         style=""
         d="m 134.72896,525.36622 v -13.10065 h -4.69077 v 13.16766 c 0,3.75262 -1.8428,6.0645 -4.82479,6.0645 -2.98199,0 -4.79129,-2.37889 -4.79129,-6.13151 v -13.10065 h -4.69077 v 13.16766 c 0,6.83512 3.81963,10.65475 9.48206,10.65475 5.96398,0 9.51556,-3.92014 9.51556,-10.72176 z" /><path
         id="path603"
         style=""
         d="m 157.78075,528.61626 c 0,-5.09284 -4.12117,-6.36605 -7.84029,-7.23719 -3.71911,-0.87115 -4.72427,-1.34022 -4.72427,-2.81447 0,-1.03867 0.83764,-2.11084 3.35055,-2.11084 2.14435,0 3.81963,0.87114 5.32737,2.41239 l 3.38406,-3.28353 c -2.21136,-2.31188 -4.8918,-3.68561 -8.5439,-3.68561 -4.62376,0 -8.37638,2.61343 -8.37638,6.86863 0,4.62376 3.0155,5.99748 7.33771,7.00265 4.42272,1.00516 5.22685,1.67527 5.22685,3.18302 0,1.77579 -1.30671,2.54642 -4.08767,2.54642 -2.24487,0 -4.35571,-0.77063 -5.99748,-2.68044 l -3.38406,3.01549 c 1.77579,2.61343 5.19336,4.2552 9.1135,4.2552 6.39955,0 9.21401,-3.01549 9.21401,-7.47172 z" /><path
         id="path605"
         style=""
         d="m 178.52401,516.88933 v -4.62376 h -18.15998 v 4.62376 h 6.7346 v 18.83009 h 4.69077 v -18.83009 z" /><path
         id="path607"
         style=""
         d="m 199.8335,535.71942 v -4.59025 h -12.09548 v -5.66243 h 6.7346 v -4.55675 h -6.7346 v -4.05417 h 11.5929 v -4.59025 h -16.28367 v 23.45385 z" /><path
         id="path609"
         style=""
         d="m 223.82345,535.71942 -4.48974,-9.11349 c 2.98199,-1.1727 4.48974,-3.38406 4.48974,-6.90214 0,-4.99232 -3.6521,-7.43822 -8.07483,-7.43822 h -10.92279 v 23.45385 h 4.69077 v -8.44338 h 4.72427 l 4.18819,8.44338 z m -4.82479,-15.91511 c 0,2.04383 -1.1727,3.049 -3.35055,3.049 h -6.13151 v -6.03099 h 6.13151 c 2.07734,0 3.35055,0.87114 3.35055,2.98199 z" /></g><g
       id="text42"
       style="font-variant:normal;font-weight:normal;font-stretch:normal;font-size:27.9211998px;font-family:Interstate;-inkscape-font-specification:Interstate-Regular;writing-mode:lr-tb;fill:#004153;fill-opacity:1;fill-rule:nonzero;stroke:none"
       transform="matrix(1,0,0,-1,638.2705,540.123)"
       aria-label="KRBD"><path
         id="path560"
         style=""
         d="m 20.0195,0 -6.561482,-12.648304 5.891373,-6.896536 h -6.589403 l -1.563587,1.982405 c -1.2564539,1.591509 -2.9596471,3.853126 -3.7693619,5.137501 0.055842,-1.423981 0.083764,-3.183017 0.083764,-4.830367 V -19.54484 H 1.9824052 V 0 H 7.5108027 V -5.8913732 L 9.5211291,-8.3205175 13.597624,0 Z" /><path
         id="path562"
         style=""
         d="m 37.861147,0 -3.908968,-7.4549603 c 2.149933,-0.977242 3.518072,-2.7921197 3.518072,-5.7238457 0,-4.634919 -3.043411,-6.366034 -7.622488,-6.366034 H 21.108428 V 0 h 5.332949 V -6.5894032 H 28.61923 L 31.802247,0 Z m -5.779688,-13.0392 c 0,1.39606 -0.69803,2.177853 -2.457066,2.177853 h -3.183016 v -4.271943 h 3.26678 c 1.703193,0 2.373302,0.865557 2.373302,2.09409 z" /><path
         id="path564"
         style=""
         d="m 57.210538,-6.3101912 c 0,-2.2057747 -1.033084,-3.5739135 -2.79212,-4.3277858 1.312296,-0.753873 2.345381,-1.703193 2.345381,-3.825204 0,-3.266781 -1.982405,-5.081659 -6.840694,-5.081659 H 40.485739 V 0 h 9.381523 c 4.914132,0 7.343276,-2.3174596 7.343276,-6.3101912 z M 51.458771,-13.73723 c 0,0.921399 -0.446739,1.535666 -1.703193,1.535666 h -4.076496 v -3.071332 h 4.076496 c 1.284375,0 1.703193,0.670109 1.703193,1.535666 z m 0.446739,7.5387236 c 0,1.116848 -0.614266,1.9265628 -1.954484,1.9265628 h -4.271944 v -3.7972831 h 4.299865 c 1.284375,0 1.926563,0.7259512 1.926563,1.8707203 z" /><path
         id="path566"
         style=""
         d="m 76.224874,-9.8841047 c 0,-7.3432753 -3.908967,-9.6607353 -10.051631,-9.6607353 H 59.332549 V 0 h 6.338112 c 6.924458,0 10.554213,-2.5408292 10.554213,-9.8841047 z m -5.556318,0.083764 c 0,3.8810467 -1.312297,5.1654219 -4.690762,5.1654219 h -1.17269 V -14.909921 h 1.340217 c 3.378466,0 4.523235,1.507745 4.523235,5.1095799 z" /></g><g
       id="g44"><g
         clip-path="url(#clipPath50)"
         id="g46"><g
           transform="translate(676.4232,495.0487)"
           id="g52"><path
             id="path54"
             style="fill:none;stroke:#004153;stroke-width:2;stroke-linecap:round;stroke-linejoin:round;stroke-miterlimit:4;stroke-dasharray:none;stroke-opacity:1"
             d="M 0,0 V -4.5" /></g><g
           transform="translate(676.4232,481.4007)"
           id="g56"><path
             id="path58"
             style="fill:none;stroke:#004153;stroke-width:2;stroke-linecap:round;stroke-linejoin:round;stroke-miterlimit:4;stroke-dasharray:9.148, 9.148;stroke-dashoffset:0;stroke-opacity:1"
             d="M 0,0 V -32.018" /></g><g
           transform="translate(676.4232,444.8089)"
           id="g60"><path
             id="path62"
             style="fill:none;stroke:#004153;stroke-width:2;stroke-linecap:round;stroke-linejoin:round;stroke-miterlimit:4;stroke-dasharray:none;stroke-opacity:1"
             d="M 0,0 V -4.5 H 4.5" /></g><g
           transform="translate(690.0707,440.3089)"
           id="g64"><path
             id="path66"
             style="fill:none;stroke:#004153;stroke-width:2;stroke-linecap:round;stroke-linejoin:round;stroke-miterlimit:4;stroke-dasharray:9.148, 9.148;stroke-dashoffset:0;stroke-opacity:1"
             d="M 0,0 H 434.512" /></g><g
           transform="translate(1129.1566,440.3089)"
           id="g68"><path
             id="path70"
             style="fill:none;stroke:#004153;stroke-width:2;stroke-linecap:round;stroke-linejoin:round;stroke-miterlimit:4;stroke-dasharray:none;stroke-opacity:1"
             d="M 0,0 H 4.5 V -4.5" /></g><g
           transform="translate(1133.6566,427.0038)"
           id="g72"><path
             id="path74"
             style="fill:none;stroke:#004153;stroke-width:2;stroke-linecap:round;stroke-linejoin:round;stroke-miterlimit:4;stroke-dasharray:8.805, 8.805;stroke-dashoffset:0;stroke-opacity:1"
             d="M 0,0 V -136.482" /></g><g
           transform="translate(1133.6566,286.119)"
           id="g76"><path
             id="path78"
             style="fill:none;stroke:#004153;stroke-width:2;stroke-linecap:round;stroke-linejoin:round;stroke-miterlimit:4;stroke-dasharray:none;stroke-opacity:1"
             d="M 0,0 V -4.5" /></g><g
           transform="translate(1125.6781,283.953)"
           id="g80"><path
             id="path82"
             style="fill:#004153;fill-opacity:1;fill-rule:nonzero;stroke:none"
             d="M 0,0 7.979,-13.816 15.956,0 Z" /></g><g
           transform="translate(676.4232,495.0487)"
           id="g84"><path
             id="path86"
             style="fill:none;stroke:#004153;stroke-width:2;stroke-linecap:round;stroke-linejoin:round;stroke-miterlimit:4;stroke-dasharray:none;stroke-opacity:1"
             d="M 0,0 V -4.5" /></g><g
           transform="translate(676.4232,481.4007)"
           id="g88"><path
             id="path90"
             style="fill:none;stroke:#004153;stroke-width:2;stroke-linecap:round;stroke-linejoin:round;stroke-miterlimit:4;stroke-dasharray:9.148, 9.148;stroke-dashoffset:0;stroke-opacity:1"
             d="M 0,0 V -32.018" /></g><g
           transform="translate(676.4232,444.8089)"
           id="g92"><path
             id="path94"
             style="fill:none;stroke:#004153;stroke-width:2;stroke-linecap:round;stroke-linejoin:round;stroke-miterlimit:4;stroke-dasharray:none;stroke-opacity:1"
             d="M 0,0 V -4.5 H 4.5" /></g><g
           transform="translate(690.3197,440.3089)"
           id="g96"><path
             id="path98"
             style="fill:none;stroke:#004153;stroke-width:2;stroke-linecap:round;stroke-linejoin:round;stroke-miterlimit:4;stroke-dasharray:9.397, 9.397;stroke-dashoffset:0;stroke-opacity:1"
             d="M 0,0 H 89.268" /></g><g
           transform="translate(784.2855,440.3089)"
           id="g100"><path
             id="path102"
             style="fill:none;stroke:#004153;stroke-width:2;stroke-linecap:round;stroke-linejoin:round;stroke-miterlimit:4;stroke-dasharray:none;stroke-opacity:1"
             d="M 0,0 H 4.5 V -4.5" /></g><g
           transform="translate(788.7855,427.0038)"
           id="g104"><path
             id="path106"
             style="fill:none;stroke:#004153;stroke-width:2;stroke-linecap:round;stroke-linejoin:round;stroke-miterlimit:4;stroke-dasharray:8.805, 8.805;stroke-dashoffset:0;stroke-opacity:1"
             d="M 0,0 V -136.482" /></g><g
           transform="translate(788.7855,286.119)"
           id="g108"><path
             id="path110"
             style="fill:none;stroke:#004153;stroke-width:2;stroke-linecap:round;stroke-linejoin:round;stroke-miterlimit:4;stroke-dasharray:none;stroke-opacity:1"
             d="M 0,0 V -4.5" /></g><g
           transform="translate(780.808,283.953)"
           id="g112"><path
             id="path114"
             style="fill:#004153;fill-opacity:1;fill-rule:nonzero;stroke:none"
             d="M 0,0 7.978,-13.816 15.956,0 Z" /></g><g
           transform="translate(676.4232,495.0487)"
           id="g116"><path
             id="path118"
             style="fill:none;stroke:#004153;stroke-width:2;stroke-linecap:round;stroke-linejoin:round;stroke-miterlimit:4;stroke-dasharray:none;stroke-opacity:1"
             d="M 0,0 V -4.5" /></g><g
           transform="translate(676.4232,481.4007)"
           id="g120"><path
             id="path122"
             style="fill:none;stroke:#004153;stroke-width:2;stroke-linecap:round;stroke-linejoin:round;stroke-miterlimit:4;stroke-dasharray:9.148, 9.148;stroke-dashoffset:0;stroke-opacity:1"
             d="M 0,0 V -32.018" /></g><g
           transform="translate(676.4232,444.8089)"
           id="g124"><path
             id="path126"
             style="fill:none;stroke:#004153;stroke-width:2;stroke-linecap:round;stroke-linejoin:round;stroke-miterlimit:4;stroke-dasharray:none;stroke-opacity:1"
             d="M 0,0 V -4.5 H -4.5" /></g><g
           transform="translate(662.7699,440.3089)"
           id="g128"><path
             id="path130"
             style="fill:none;stroke:#004153;stroke-width:2;stroke-linecap:round;stroke-linejoin:round;stroke-miterlimit:4;stroke-dasharray:9.153, 9.153;stroke-dashoffset:0;stroke-opacity:1"
             d="M 0,0 H -123.561" /></g><g
           transform="translate(534.6332,440.3089)"
           id="g132"><path
             id="path134"
             style="fill:none;stroke:#004153;stroke-width:2;stroke-linecap:round;stroke-linejoin:round;stroke-miterlimit:4;stroke-dasharray:none;stroke-opacity:1"
             d="M 0,0 H -4.5 V -4.5" /></g><g
           transform="translate(530.1332,427.0038)"
           id="g136"><path
             id="path138"
             style="fill:none;stroke:#004153;stroke-width:2;stroke-linecap:round;stroke-linejoin:round;stroke-miterlimit:4;stroke-dasharray:8.805, 8.805;stroke-dashoffset:0;stroke-opacity:1"
             d="M 0,0 V -136.482" /></g><g
           transform="translate(530.1332,286.119)"
           id="g140"><path
             id="path142"
             style="fill:none;stroke:#004153;stroke-width:2;stroke-linecap:round;stroke-linejoin:round;stroke-miterlimit:4;stroke-dasharray:none;stroke-opacity:1"
             d="M 0,0 V -4.5" /></g><g
           transform="translate(522.1547,283.953)"
           id="g144"><path
             id="path146"
             style="fill:#004153;fill-opacity:1;fill-rule:nonzero;stroke:none"
             d="M 0,0 7.979,-13.816 15.957,0 Z" /></g><g
           transform="translate(676.4232,495.0487)"
           id="g148"><path
             id="path150"
             style="fill:none;stroke:#004153;stroke-width:2;stroke-linecap:round;stroke-linejoin:round;stroke-miterlimit:4;stroke-dasharray:none;stroke-opacity:1"
             d="M 0,0 V -4.5" /></g><g
           transform="translate(676.4232,481.4007)"
           id="g152"><path
             id="path154"
             style="fill:none;stroke:#004153;stroke-width:2;stroke-linecap:round;stroke-linejoin:round;stroke-miterlimit:4;stroke-dasharray:9.148, 9.148;stroke-dashoffset:0;stroke-opacity:1"
             d="M 0,0 V -32.018" /></g><g
           transform="translate(676.4232,444.8089)"
           id="g156"><path
             id="path158"
             style="fill:none;stroke:#004153;stroke-width:2;stroke-linecap:round;stroke-linejoin:round;stroke-miterlimit:4;stroke-dasharray:none;stroke-opacity:1"
             d="M 0,0 V -4.5 H -4.5" /></g><g
           transform="translate(662.9154,440.3089)"
           id="g160"><path
             id="path162"
             style="fill:none;stroke:#004153;stroke-width:2;stroke-linecap:round;stroke-linejoin:round;stroke-miterlimit:4;stroke-dasharray:9.007, 9.007;stroke-dashoffset:0;stroke-opacity:1"
             d="M 0,0 H -211.665" /></g><g
           transform="translate(446.7465,440.3089)"
           id="g164"><path
             id="path166"
             style="fill:none;stroke:#004153;stroke-width:2;stroke-linecap:round;stroke-linejoin:round;stroke-miterlimit:4;stroke-dasharray:none;stroke-opacity:1"
             d="M 0,0 H -4.5 V -4.5" /></g><g
           transform="translate(442.2465,427.0038)"
           id="g168"><path
             id="path170"
             style="fill:none;stroke:#004153;stroke-width:2;stroke-linecap:round;stroke-linejoin:round;stroke-miterlimit:4;stroke-dasharray:8.805, 8.805;stroke-dashoffset:0;stroke-opacity:1"
             d="M 0,0 V -136.482" /></g><g
           transform="translate(442.2465,286.119)"
           id="g172"><path
             id="path174"
             style="fill:none;stroke:#004153;stroke-width:2;stroke-linecap:round;stroke-linejoin:round;stroke-miterlimit:4;stroke-dasharray:none;stroke-opacity:1"
             d="M 0,0 V -4.5" /></g><g
           transform="translate(434.2685,283.953)"
           id="g176"><path
             id="path178"
             style="fill:#004153;fill-opacity:1;fill-rule:nonzero;stroke:none"
             d="M 0,0 7.978,-13.816 15.956,0 Z" /></g><g
           transform="translate(676.4232,493.5667)"
           id="g180"><path
             id="path182"
             style="fill:none;stroke:#004153;stroke-width:2;stroke-linecap:round;stroke-linejoin:round;stroke-miterlimit:4;stroke-dasharray:none;stroke-opacity:1"
             d="M 0,0 V -4.5" /></g><g
           transform="translate(676.4232,480.2152)"
           id="g184"><path
             id="path186"
             style="fill:none;stroke:#004153;stroke-width:2;stroke-linecap:round;stroke-linejoin:round;stroke-miterlimit:4;stroke-dasharray:8.852, 8.852;stroke-dashoffset:0;stroke-opacity:1"
             d="M 0,0 V -30.98" /></g><g
           transform="translate(676.4232,444.8089)"
           id="g188"><path
             id="path190"
             style="fill:none;stroke:#004153;stroke-width:2;stroke-linecap:round;stroke-linejoin:round;stroke-miterlimit:4;stroke-dasharray:none;stroke-opacity:1"
             d="M 0,0 V -4.5 H -4.5" /></g><g
           transform="translate(662.8256,440.3089)"
           id="g192"><path
             id="path194"
             style="fill:none;stroke:#004153;stroke-width:2;stroke-linecap:round;stroke-linejoin:round;stroke-miterlimit:4;stroke-dasharray:9.097, 9.097;stroke-dashoffset:0;stroke-opacity:1"
             d="M 0,0 H -468.514" /></g><g
           transform="translate(189.7626,440.3089)"
           id="g196"><path
             id="path198"
             style="fill:none;stroke:#004153;stroke-width:2;stroke-linecap:round;stroke-linejoin:round;stroke-miterlimit:4;stroke-dasharray:none;stroke-opacity:1"
             d="M 0,0 H -4.5 V -4.5" /></g><g
           transform="translate(185.2626,427.0038)"
           id="g200"><path
             id="path202"
             style="fill:none;stroke:#004153;stroke-width:2;stroke-linecap:round;stroke-linejoin:round;stroke-miterlimit:4;stroke-dasharray:8.805, 8.805;stroke-dashoffset:0;stroke-opacity:1"
             d="M 0,0 V -136.482" /></g><g
           transform="translate(185.2626,286.119)"
           id="g204"><path
             id="path206"
             style="fill:none;stroke:#004153;stroke-width:2;stroke-linecap:round;stroke-linejoin:round;stroke-miterlimit:4;stroke-dasharray:none;stroke-opacity:1"
             d="M 0,0 V -4.5" /></g><g
           transform="translate(668.4447,491.2323)"
           id="g208"><path
             id="path210"
             style="fill:#004153;fill-opacity:1;fill-rule:nonzero;stroke:none"
             d="M 0,0 7.979,13.816 15.956,0 Z" /></g><g
           transform="translate(177.2846,283.953)"
           id="g212"><path
             id="path214"
             style="fill:#004153;fill-opacity:1;fill-rule:nonzero;stroke:none"
             d="M 0,0 7.978,-13.816 15.956,0 Z" /></g><path
           id="path216"
           style="fill:#ffffff;fill-opacity:1;fill-rule:nonzero;stroke:none"
           d="M 122.298,184.23 H 73.261 v 46.871 h 49.037 z" /><path
           id="path218"
           style="fill:#a30000;fill-opacity:1;fill-rule:nonzero;stroke:none"
           d="m 118.939,187.181 h -42.32 v 9.792 h 42.32 z" /><path
           id="path220"
           style="fill:#ffffff;fill-opacity:1;fill-rule:nonzero;stroke:none"
           d="M 122.298,109.932 H 73.261 v 46.87 h 49.037 z" /><path
           id="path222"
           style="fill:#a30000;fill-opacity:1;fill-rule:nonzero;stroke:none"
           d="m 118.939,112.884 h -42.32 v 9.792 h 42.32 z" /><path
           id="path224"
           style="fill:#ffffff;fill-opacity:1;fill-rule:nonzero;stroke:none"
           d="m 208.515,184.23 h -49.037 v 46.871 h 49.037 z" /><path
           id="path226"
           style="fill:#a30000;fill-opacity:1;fill-rule:nonzero;stroke:none"
           d="m 205.157,187.181 h -42.32 v 9.792 h 42.32 z" /><path
           id="path228"
           style="fill:#ffffff;fill-opacity:1;fill-rule:nonzero;stroke:none"
           d="m 208.515,109.932 h -49.037 v 46.87 h 49.037 z" /><path
           id="path230"
           style="fill:#a30000;fill-opacity:1;fill-rule:nonzero;stroke:none"
           d="m 205.157,112.884 h -42.32 v 9.792 h 42.32 z" /><path
           id="path232"
           style="fill:#ffffff;fill-opacity:1;fill-rule:nonzero;stroke:none"
           d="m 294.733,184.23 h -49.037 v 46.871 h 49.037 z" /><path
           id="path234"
           style="fill:#a30000;fill-opacity:1;fill-rule:nonzero;stroke:none"
           d="m 291.375,187.181 h -42.321 v 9.792 h 42.321 z" /><path
           id="path236"
           style="fill:#ffffff;fill-opacity:1;fill-rule:nonzero;stroke:none"
           d="m 294.733,109.932 h -49.037 v 46.87 h 49.037 z" /><path
           id="path238"
           style="fill:#a30000;fill-opacity:1;fill-rule:nonzero;stroke:none"
           d="m 291.375,112.884 h -42.321 v 9.792 h 42.321 z" /><path
           id="path240"
           style="fill:#ffffff;fill-opacity:1;fill-rule:nonzero;stroke:none"
           d="m 380.951,109.932 h -49.037 v 46.87 h 49.037 z" /><path
           id="path242"
           style="fill:#a30000;fill-opacity:1;fill-rule:nonzero;stroke:none"
           d="m 377.592,112.884 h -42.32 v 9.792 h 42.32 z" /><path
           id="path244"
           style="fill:#ffffff;fill-opacity:1;fill-rule:nonzero;stroke:none"
           d="m 467.168,184.23 h -49.037 v 46.871 h 49.037 z" /><path
           id="path246"
           style="fill:#a30000;fill-opacity:1;fill-rule:nonzero;stroke:none"
           d="m 463.81,187.181 h -42.32 v 9.792 h 42.32 z" /><path
           id="path248"
           style="fill:#ffffff;fill-opacity:1;fill-rule:nonzero;stroke:none"
           d="m 467.168,109.932 h -49.037 v 46.87 h 49.037 z" /><path
           id="path250"
           style="fill:#a30000;fill-opacity:1;fill-rule:nonzero;stroke:none"
           d="m 463.81,112.884 h -42.32 v 9.792 h 42.32 z" /><path
           id="path252"
           style="fill:#ffffff;fill-opacity:1;fill-rule:nonzero;stroke:none"
           d="m 553.386,184.23 h -49.037 v 46.871 h 49.037 z" /><path
           id="path254"
           style="fill:#a30000;fill-opacity:1;fill-rule:nonzero;stroke:none"
           d="m 550.028,187.181 h -42.321 v 9.792 h 42.321 z" /><path
           id="path256"
           style="fill:#ffffff;fill-opacity:1;fill-rule:nonzero;stroke:none"
           d="m 553.386,109.932 h -49.037 v 46.87 h 49.037 z" /><path
           id="path258"
           style="fill:#a30000;fill-opacity:1;fill-rule:nonzero;stroke:none"
           d="m 550.028,112.884 h -42.321 v 9.792 h 42.321 z" /><path
           id="path260"
           style="fill:#ffffff;fill-opacity:1;fill-rule:nonzero;stroke:none"
           d="m 639.603,184.23 h -49.037 v 46.871 h 49.037 z" /><path
           id="path262"
           style="fill:#a30000;fill-opacity:1;fill-rule:nonzero;stroke:none"
           d="m 636.245,187.181 h -42.32 v 9.792 h 42.32 z" /><path
           id="path264"
           style="fill:#ffffff;fill-opacity:1;fill-rule:nonzero;stroke:none"
           d="m 639.603,109.932 h -49.037 v 46.87 h 49.037 z" /><path
           id="path266"
           style="fill:#a30000;fill-opacity:1;fill-rule:nonzero;stroke:none"
           d="m 636.245,112.884 h -42.32 v 9.792 h 42.32 z" /><path
           id="path268"
           style="fill:#ffffff;fill-opacity:1;fill-rule:nonzero;stroke:none"
           d="m 725.821,184.23 h -49.036 v 46.871 h 49.036 z" /><path
           id="path270"
           style="fill:#a30000;fill-opacity:1;fill-rule:nonzero;stroke:none"
           d="m 722.462,187.181 h -42.32 v 9.792 h 42.32 z" /><path
           id="path272"
           style="fill:#ffffff;fill-opacity:1;fill-rule:nonzero;stroke:none"
           d="m 725.821,109.932 h -49.036 v 46.87 h 49.036 z" /><path
           id="path274"
           style="fill:#a30000;fill-opacity:1;fill-rule:nonzero;stroke:none"
           d="m 722.462,112.884 h -42.32 v 9.792 h 42.32 z" /><path
           id="path276"
           style="fill:#ffffff;fill-opacity:1;fill-rule:nonzero;stroke:none"
           d="m 812.038,184.23 h -49.036 v 46.871 h 49.036 z" /><path
           id="path278"
           style="fill:#a30000;fill-opacity:1;fill-rule:nonzero;stroke:none"
           d="m 808.68,187.181 h -42.32 v 9.792 h 42.32 z" /><path
           id="path280"
           style="fill:#ffffff;fill-opacity:1;fill-rule:nonzero;stroke:none"
           d="m 812.038,109.932 h -49.036 v 46.87 h 49.036 z" /><path
           id="path282"
           style="fill:#a30000;fill-opacity:1;fill-rule:nonzero;stroke:none"
           d="m 808.68,112.884 h -42.32 v 9.792 h 42.32 z" /><path
           id="path284"
           style="fill:#ffffff;fill-opacity:1;fill-rule:nonzero;stroke:none"
           d="m 898.256,109.932 h -49.037 v 46.87 h 49.037 z" /><path
           id="path286"
           style="fill:#a30000;fill-opacity:1;fill-rule:nonzero;stroke:none"
           d="m 894.898,112.884 h -42.32 v 9.792 h 42.32 z" /><path
           id="path288"
           style="fill:#ffffff;fill-opacity:1;fill-rule:nonzero;stroke:none"
           d="m 984.474,184.23 h -49.037 v 46.871 h 49.037 z" /><path
           id="path290"
           style="fill:#a30000;fill-opacity:1;fill-rule:nonzero;stroke:none"
           d="m 981.116,187.181 h -42.32 v 9.792 h 42.32 z" /><path
           id="path292"
           style="fill:#ffffff;fill-opacity:1;fill-rule:nonzero;stroke:none"
           d="m 984.474,109.932 h -49.037 v 46.87 h 49.037 z" /><path
           id="path294"
           style="fill:#a30000;fill-opacity:1;fill-rule:nonzero;stroke:none"
           d="m 981.116,112.884 h -42.32 v 9.792 h 42.32 z" /><path
           id="path296"
           style="fill:#ffffff;fill-opacity:1;fill-rule:nonzero;stroke:none"
           d="m 1070.691,184.23 h -49.036 v 46.871 h 49.036 z" /><path
           id="path298"
           style="fill:#a30000;fill-opacity:1;fill-rule:nonzero;stroke:none"
           d="m 1067.333,187.181 h -42.32 v 9.792 h 42.32 z" /><path
           id="path300"
           style="fill:#ffffff;fill-opacity:1;fill-rule:nonzero;stroke:none"
           d="m 1070.691,109.932 h -49.036 v 46.87 h 49.036 z" /><path
           id="path302"
           style="fill:#a30000;fill-opacity:1;fill-rule:nonzero;stroke:none"
           d="m 1067.333,112.884 h -42.32 v 9.792 h 42.32 z" /><path
           id="path304"
           style="fill:#ffffff;fill-opacity:1;fill-rule:nonzero;stroke:none"
           d="m 1156.909,184.23 h -49.036 v 46.871 h 49.036 z" /><path
           id="path306"
           style="fill:#a30000;fill-opacity:1;fill-rule:nonzero;stroke:none"
           d="m 1153.551,187.181 h -42.32 v 9.792 h 42.32 z" /><path
           id="path308"
           style="fill:#ffffff;fill-opacity:1;fill-rule:nonzero;stroke:none"
           d="m 1156.909,109.932 h -49.036 v 46.87 h 49.036 z" /><path
           id="path310"
           style="fill:#a30000;fill-opacity:1;fill-rule:nonzero;stroke:none"
           d="m 1153.551,112.884 h -42.32 v 9.792 h 42.32 z" /><path
           id="path312"
           style="fill:#ffffff;fill-opacity:1;fill-rule:nonzero;stroke:none"
           d="m 1243.126,184.23 h -49.036 v 46.871 h 49.036 z" /><path
           id="path314"
           style="fill:#a30000;fill-opacity:1;fill-rule:nonzero;stroke:none"
           d="m 1239.769,187.181 h -42.321 v 9.792 h 42.321 z" /><path
           id="path316"
           style="fill:#ffffff;fill-opacity:1;fill-rule:nonzero;stroke:none"
           d="m 1243.126,109.932 h -49.036 v 46.87 h 49.036 z" /><path
           id="path318"
           style="fill:#a30000;fill-opacity:1;fill-rule:nonzero;stroke:none"
           d="m 1239.769,112.884 h -42.321 v 9.792 h 42.321 z" /><path
           id="path320"
           style="fill:#004153;fill-opacity:1;fill-rule:nonzero;stroke:none"
           d="m 194.94,206.037 h -21.887 v 16.007 h 21.887 z" /><path
           id="path322"
           style="fill:#004153;fill-opacity:1;fill-rule:nonzero;stroke:none"
           d="m 453.593,206.037 h -21.887 v 16.007 h 21.887 z" /><path
           id="path324"
           style="fill:#004153;fill-opacity:1;fill-rule:nonzero;stroke:none"
           d="m 539.811,206.037 h -21.887 v 16.007 h 21.887 z" /><path
           id="path326"
           style="fill:#004153;fill-opacity:1;fill-rule:nonzero;stroke:none"
           d="m 798.464,206.037 h -21.888 v 16.007 h 21.888 z" /><path
           id="path328"
           style="fill:#004153;fill-opacity:1;fill-rule:nonzero;stroke:none"
           d="m 1143.334,206.037 h -21.888 v 16.007 h 21.888 z" /><g
           transform="translate(685.3578,692.493)"
           id="g330"><path
             id="path332"
             style="fill:#004153;fill-opacity:1;fill-rule:nonzero;stroke:none"
             d="m 0,0 c -3.981,-4.893 -11.192,-5.636 -16.086,-1.657 -4.478,3.642 -5.47,9.99 -2.553,14.791 l 0.471,0.713 c 0.139,0.195 0.272,0.392 0.429,0.584 3.977,4.891 11.189,5.634 16.081,1.652 C 3.235,12.107 3.98,4.889 0,0 m -0.443,17.576 c -5.712,4.649 -14.139,3.781 -18.79,-1.934 -0.19,-0.235 -0.355,-0.482 -0.53,-0.725 l -0.706,-1.104 c -3.17,-5.569 -1.959,-12.789 3.17,-16.961 5.714,-4.648 14.142,-3.778 18.789,1.937 0.476,0.586 0.883,1.207 1.245,1.843 l 0.588,1.167 c 2.382,5.375 1.009,11.895 -3.766,15.777" /></g><g
           transform="translate(716.7855,685.0609)"
           id="g334"><path
             id="path336"
             style="fill:#004153;fill-opacity:1;fill-rule:nonzero;stroke:none"
             d="m 0,0 c -1.595,-4.377 -3.92,-8.571 -7.025,-12.387 -2.594,-3.192 -5.566,-5.898 -8.785,-8.137 -1.127,-0.784 -2.282,-1.518 -3.467,-2.184 -7.305,-4.101 -15.623,-5.953 -23.87,-5.428 l -1.276,0.094 c -5.877,0.548 -11.679,2.326 -17.018,5.335 -1.188,0.671 -2.36,1.382 -3.499,2.177 -0.863,0.602 -1.711,1.237 -2.54,1.91 -15.19,12.356 -19.724,33.02 -12.41,50.196 l 0.514,1.18 c 1.47,3.184 3.357,6.239 5.67,9.087 14.954,18.384 42.077,21.176 60.46,6.226 C 0.971,36.503 5.855,17.665 0.424,1.215 Z m -11.63,50.054 c -19.481,15.847 -48.218,12.884 -64.062,-6.594 -15.843,-19.481 -12.882,-48.222 6.596,-64.07 0.177,-0.142 0.358,-0.275 0.534,-0.413 0.974,-0.767 1.965,-1.493 2.979,-2.17 15.455,-10.294 35.44,-9.974 50.447,0 1.017,0.673 2.004,1.406 2.973,2.17 2.574,2.032 4.974,4.367 7.128,7.016 C 10.81,5.474 7.851,34.216 -11.63,50.054" /></g><g
           transform="translate(682.8568,694.5291)"
           id="g338"><path
             id="path340"
             style="fill:#004153;fill-opacity:1;fill-rule:nonzero;stroke:none"
             d="m 0,0 c -2.854,-3.519 -8.035,-4.049 -11.551,-1.192 -3.515,2.858 -4.05,8.04 -1.191,11.551 2.859,3.513 8.041,4.049 11.555,1.191 C 2.326,8.693 2.859,3.509 0,0 m -0.378,12.543 c -4.062,3.303 -10.053,2.688 -13.358,-1.374 -3.303,-4.061 -2.683,-10.051 1.379,-13.357 4.061,-3.301 10.049,-2.683 13.354,1.38 3.302,4.058 2.685,10.05 -1.375,13.351" /></g><g
           transform="translate(664.3676,686.7518)"
           id="g342"><path
             id="path344"
             style="fill:#004153;fill-opacity:1;fill-rule:nonzero;stroke:none"
             d="m 0,0 -13.357,-16.106 c -0.229,-0.271 -0.191,-0.677 0.083,-0.903 0.119,-0.097 0.265,-0.146 0.408,-0.146 0.186,0 0.367,0.078 0.492,0.234 L 0.986,-0.819 C 1.211,-0.548 1.176,-0.143 0.903,0.084 0.629,0.309 0.224,0.271 0,0" /></g><g
           transform="translate(701.0502,730.9207)"
           id="g346"><path
             id="path348"
             style="fill:#004153;fill-opacity:1;fill-rule:nonzero;stroke:none"
             d="M 0,0 C -0.271,0.225 -0.677,0.188 -0.904,-0.086 L -14.083,-15.97 c -0.228,-0.274 -0.188,-0.677 0.083,-0.903 0.121,-0.101 0.266,-0.149 0.409,-0.149 0.184,0 0.367,0.08 0.491,0.232 L 0.082,-0.902 C 0.311,-0.631 0.271,-0.225 0,0" /></g><g
           transform="translate(703.5521,727.765)"
           id="g350"><path
             id="path352"
             style="fill:#004153;fill-opacity:1;fill-rule:nonzero;stroke:none"
             d="m 0,0 -4.245,-4.062 c -0.256,-0.247 -0.263,-0.648 -0.021,-0.905 0.128,-0.133 0.294,-0.199 0.461,-0.199 0.16,0 0.323,0.059 0.446,0.177 l 4.248,4.062 C 1.142,-0.685 1.15,-0.278 0.906,-0.021 0.663,0.233 0.259,0.243 0,0" /></g></g></g></g></svg>