<svg id="Layer_1" data-name="Layer 1" xmlns="http://www.w3.org/2000/svg" width="568" height="406" viewBox="0 0 568 406"><defs><style>.cls-1{fill:#e6e6e6;}.cls-2{fill:#ec7a08;}.cls-3{fill:#4c4c4c;}.cls-4{fill:#fff;}.cls-5{fill:none;stroke:#4c4c4c;stroke-miterlimit:10;}</style></defs><title>radosgw_scalingout</title><rect class="cls-1" width="160" height="59"/><rect class="cls-1" x="204" width="160" height="59"/><rect class="cls-1" x="408" width="160" height="59"/><rect class="cls-1" y="138" width="160" height="59"/><rect class="cls-1" x="204" y="138" width="160" height="59"/><rect class="cls-1" x="408" y="138" width="160" height="59"/><rect class="cls-2" x="160" y="347" width="248" height="59"/><path class="cls-3" d="M46.87,44.91a5.86,5.86,0,0,1-4.49-2l1.35-1.32A4.62,4.62,0,0,0,47,43.06c1.77,0,2.61-.62,2.61-1.84,0-1-.74-1.46-2.84-2.09-2.67-.79-4-1.46-4-3.71s1.84-3.51,4.16-3.51a5.67,5.67,0,0,1,4.13,1.71L49.78,35a3.81,3.81,0,0,0-2.93-1.21c-1.48,0-2.11.72-2.11,1.57s.58,1.32,2.76,2c2.48.76,4,1.55,4,3.8S50.09,44.91,46.87,44.91Z" transform="translate(-9.5 -9.3)"/><path class="cls-3" d="M62.08,44.71H60.5l-1.28-4.77c-.2-.72-.4-1.57-.49-2-.09.45-.29,1.32-.48,2L57,44.71H55.4l-2.59-9.45h1.83l1.12,4.59c.18.72.38,1.62.47,2.07.11-.47.32-1.33.52-2.07L58,35.26H59.5l1.28,4.61c.2.74.4,1.58.51,2.05.11-.47.29-1.35.47-2.07l1.11-4.59h1.84Z" transform="translate(-9.5 -9.3)"/><path class="cls-3" d="M67.82,34A1.2,1.2,0,1,1,69,32.85,1.2,1.2,0,0,1,67.82,34Zm-.94,10.68V35.26h1.86v9.45Z" transform="translate(-9.5 -9.3)"/><path class="cls-3" d="M74.91,33.26c-.61,0-.86.23-.86.92v1.08h1.74V37H74.05v7.72H72.19V37H71V35.26h1.22V34a2.16,2.16,0,0,1,2.4-2.38,5.46,5.46,0,0,1,1.4.18v1.62A3.57,3.57,0,0,0,74.91,33.26Z" transform="translate(-9.5 -9.3)"/><path class="cls-3" d="M82.6,44.48a3.79,3.79,0,0,1-1.82.43c-1.31,0-2.12-.81-2.12-2.5V37H77.3V35.26h1.36v-2.7l1.81-1v3.67h2.34V37H80.47v5.13c0,.89.29,1.14,1,1.14a2.92,2.92,0,0,0,1.36-.38Z" transform="translate(-9.5 -9.3)"/><path class="cls-3" d="M95.2,44.91c-3.26,0-5.33-2.68-5.33-6.5s2.07-6.5,5.33-6.5a4.51,4.51,0,0,1,4.28,2.36l-1.67,1A2.73,2.73,0,0,0,95.2,33.8c-2.2,0-3.39,1.78-3.39,4.61S93,43,95.2,43A3,3,0,0,0,98,41.45l1.57,1A4.8,4.8,0,0,1,95.2,44.91Z" transform="translate(-9.5 -9.3)"/><path class="cls-3" d="M102.07,44.71V32.56l1.86-1V44.71Z" transform="translate(-9.5 -9.3)"/><path class="cls-3" d="M107.78,34A1.2,1.2,0,1,1,109,32.85,1.2,1.2,0,0,1,107.78,34Zm-.94,10.68V35.26h1.86v9.45Z" transform="translate(-9.5 -9.3)"/><path class="cls-3" d="M119.14,40.64h-6.25c.2,1.82,1.23,2.6,2.38,2.6a3.3,3.3,0,0,0,2-.76l1.1,1.19a4.41,4.41,0,0,1-3.26,1.24c-2.21,0-4.09-1.78-4.09-4.92s1.7-4.93,4.14-4.93c2.69,0,4,2.18,4,4.74A8.22,8.22,0,0,1,119.14,40.64Zm-4-3.9c-1.24,0-2,.86-2.16,2.37h4.39C117.23,37.82,116.62,36.74,115.09,36.74Z" transform="translate(-9.5 -9.3)"/><path class="cls-3" d="M127.24,44.71V39.36c0-1.9-.72-2.59-1.95-2.59s-1.94.88-1.94,2.41v5.53H121.5V35.26h1.85v.9a2.88,2.88,0,0,1,2.38-1.1c2.19,0,3.36,1.44,3.36,4.23v5.42Z" transform="translate(-9.5 -9.3)"/><path class="cls-3" d="M136.19,44.48a3.79,3.79,0,0,1-1.82.43c-1.32,0-2.13-.81-2.13-2.5V37h-1.35V35.26h1.35v-2.7l1.82-1v3.67h2.34V37h-2.34v5.13c0,.89.29,1.14,1,1.14a2.93,2.93,0,0,0,1.37-.38Z" transform="translate(-9.5 -9.3)"/><path class="cls-3" d="M250.87,44.91a5.86,5.86,0,0,1-4.49-2l1.35-1.32a4.62,4.62,0,0,0,3.28,1.5c1.77,0,2.61-.62,2.61-1.84,0-1-.74-1.46-2.84-2.09-2.67-.79-3.95-1.46-3.95-3.71s1.84-3.51,4.16-3.51a5.67,5.67,0,0,1,4.13,1.71L253.78,35a3.81,3.81,0,0,0-2.93-1.21c-1.48,0-2.11.72-2.11,1.57s.58,1.32,2.76,2c2.48.76,4,1.55,4,3.8S254.09,44.91,250.87,44.91Z" transform="translate(-9.5 -9.3)"/><path class="cls-3" d="M266.08,44.71H264.5l-1.28-4.77c-.2-.72-.4-1.57-.49-2-.09.45-.29,1.32-.48,2L261,44.71H259.4l-2.59-9.45h1.83l1.12,4.59c.18.72.38,1.62.47,2.07.11-.47.32-1.33.52-2.07L262,35.26h1.49l1.28,4.61c.2.74.4,1.58.51,2.05.11-.47.29-1.35.47-2.07l1.11-4.59h1.84Z" transform="translate(-9.5 -9.3)"/><path class="cls-3" d="M271.82,34A1.2,1.2,0,1,1,273,32.85,1.2,1.2,0,0,1,271.82,34Zm-.94,10.68V35.26h1.86v9.45Z" transform="translate(-9.5 -9.3)"/><path class="cls-3" d="M278.91,33.26c-.61,0-.86.23-.86.92v1.08h1.74V37h-1.74v7.72h-1.86V37H275V35.26h1.22V34a2.16,2.16,0,0,1,2.4-2.38,5.46,5.46,0,0,1,1.4.18v1.62A3.57,3.57,0,0,0,278.91,33.26Z" transform="translate(-9.5 -9.3)"/><path class="cls-3" d="M286.6,44.48a3.79,3.79,0,0,1-1.82.43c-1.31,0-2.12-.81-2.12-2.5V37H281.3V35.26h1.36v-2.7l1.81-1v3.67h2.34V37h-2.34v5.13c0,.89.29,1.14,1,1.14a2.92,2.92,0,0,0,1.36-.38Z" transform="translate(-9.5 -9.3)"/><path class="cls-3" d="M299.2,44.91c-3.26,0-5.33-2.68-5.33-6.5s2.07-6.5,5.33-6.5a4.51,4.51,0,0,1,4.28,2.36l-1.67,1a2.73,2.73,0,0,0-2.61-1.51c-2.2,0-3.39,1.78-3.39,4.61S297,43,299.2,43A3,3,0,0,0,302,41.45l1.57,1A4.8,4.8,0,0,1,299.2,44.91Z" transform="translate(-9.5 -9.3)"/><path class="cls-3" d="M306.07,44.71V32.56l1.86-1V44.71Z" transform="translate(-9.5 -9.3)"/><path class="cls-3" d="M311.78,34A1.2,1.2,0,1,1,313,32.85,1.2,1.2,0,0,1,311.78,34Zm-.94,10.68V35.26h1.86v9.45Z" transform="translate(-9.5 -9.3)"/><path class="cls-3" d="M323.14,40.64h-6.25c.2,1.82,1.23,2.6,2.38,2.6a3.3,3.3,0,0,0,2.05-.76l1.1,1.19a4.41,4.41,0,0,1-3.26,1.24c-2.21,0-4.09-1.78-4.09-4.92s1.7-4.93,4.14-4.93c2.69,0,4,2.18,4,4.74A8.22,8.22,0,0,1,323.14,40.64Zm-4.05-3.9c-1.24,0-2,.86-2.16,2.37h4.39C321.23,37.82,320.62,36.74,319.09,36.74Z" transform="translate(-9.5 -9.3)"/><path class="cls-3" d="M331.24,44.71V39.36c0-1.9-.72-2.59-1.95-2.59s-1.94.88-1.94,2.41v5.53H325.5V35.26h1.85v.9a2.88,2.88,0,0,1,2.38-1.1c2.19,0,3.36,1.44,3.36,4.23v5.42Z" transform="translate(-9.5 -9.3)"/><path class="cls-3" d="M340.19,44.48a3.79,3.79,0,0,1-1.82.43c-1.32,0-2.13-.81-2.13-2.5V37h-1.35V35.26h1.35v-2.7l1.82-1v3.67h2.34V37h-2.34v5.13c0,.89.29,1.14,1,1.14a2.93,2.93,0,0,0,1.37-.38Z" transform="translate(-9.5 -9.3)"/><path class="cls-3" d="M454.87,44.91a5.86,5.86,0,0,1-4.49-2l1.35-1.32a4.62,4.62,0,0,0,3.28,1.5c1.77,0,2.61-.62,2.61-1.84,0-1-.74-1.46-2.84-2.09-2.67-.79-3.95-1.46-3.95-3.71s1.84-3.51,4.16-3.51a5.67,5.67,0,0,1,4.13,1.71L457.78,35a3.81,3.81,0,0,0-2.93-1.21c-1.48,0-2.11.72-2.11,1.57s.58,1.32,2.76,2c2.48.76,4,1.55,4,3.8S458.09,44.91,454.87,44.91Z" transform="translate(-9.5 -9.3)"/><path class="cls-3" d="M470.08,44.71H468.5l-1.28-4.77c-.2-.72-.4-1.57-.49-2-.09.45-.29,1.32-.48,2L465,44.71H463.4l-2.59-9.45h1.83l1.12,4.59c.18.72.38,1.62.47,2.07.11-.47.32-1.33.52-2.07L466,35.26h1.49l1.28,4.61c.2.74.4,1.58.51,2.05.11-.47.29-1.35.47-2.07l1.11-4.59h1.84Z" transform="translate(-9.5 -9.3)"/><path class="cls-3" d="M475.82,34A1.2,1.2,0,1,1,477,32.85,1.2,1.2,0,0,1,475.82,34Zm-.94,10.68V35.26h1.86v9.45Z" transform="translate(-9.5 -9.3)"/><path class="cls-3" d="M482.91,33.26c-.61,0-.86.23-.86.92v1.08h1.74V37h-1.74v7.72h-1.86V37H479V35.26h1.22V34a2.16,2.16,0,0,1,2.4-2.38,5.46,5.46,0,0,1,1.4.18v1.62A3.57,3.57,0,0,0,482.91,33.26Z" transform="translate(-9.5 -9.3)"/><path class="cls-3" d="M490.6,44.48a3.79,3.79,0,0,1-1.82.43c-1.31,0-2.12-.81-2.12-2.5V37H485.3V35.26h1.36v-2.7l1.81-1v3.67h2.34V37h-2.34v5.13c0,.89.29,1.14,1,1.14a2.92,2.92,0,0,0,1.36-.38Z" transform="translate(-9.5 -9.3)"/><path class="cls-3" d="M503.2,44.91c-3.26,0-5.33-2.68-5.33-6.5s2.07-6.5,5.33-6.5a4.51,4.51,0,0,1,4.28,2.36l-1.67,1a2.73,2.73,0,0,0-2.61-1.51c-2.2,0-3.39,1.78-3.39,4.61S501,43,503.2,43A3,3,0,0,0,506,41.45l1.57,1A4.8,4.8,0,0,1,503.2,44.91Z" transform="translate(-9.5 -9.3)"/><path class="cls-3" d="M510.07,44.71V32.56l1.86-1V44.71Z" transform="translate(-9.5 -9.3)"/><path class="cls-3" d="M515.78,34A1.2,1.2,0,1,1,517,32.85,1.2,1.2,0,0,1,515.78,34Zm-.94,10.68V35.26h1.86v9.45Z" transform="translate(-9.5 -9.3)"/><path class="cls-3" d="M527.14,40.64h-6.25c.2,1.82,1.23,2.6,2.38,2.6a3.3,3.3,0,0,0,2.05-.76l1.1,1.19a4.41,4.41,0,0,1-3.26,1.24c-2.21,0-4.09-1.78-4.09-4.92s1.7-4.93,4.14-4.93c2.69,0,4,2.18,4,4.74A8.22,8.22,0,0,1,527.14,40.64Zm-4-3.9c-1.24,0-2,.86-2.16,2.37h4.39C525.23,37.82,524.62,36.74,523.09,36.74Z" transform="translate(-9.5 -9.3)"/><path class="cls-3" d="M535.24,44.71V39.36c0-1.9-.72-2.59-2-2.59s-1.94.88-1.94,2.41v5.53H529.5V35.26h1.85v.9a2.88,2.88,0,0,1,2.38-1.1c2.19,0,3.36,1.44,3.36,4.23v5.42Z" transform="translate(-9.5 -9.3)"/><path class="cls-3" d="M544.19,44.48a3.79,3.79,0,0,1-1.82.43c-1.32,0-2.13-.81-2.13-2.5V37h-1.35V35.26h1.35v-2.7l1.82-1v3.67h2.34V37h-2.34v5.13c0,.89.29,1.14,1,1.14a2.93,2.93,0,0,0,1.37-.38Z" transform="translate(-9.5 -9.3)"/><path class="cls-3" d="M61.23,175.22a2.81,2.81,0,0,0-1.42-.34c-1.17,0-1.85.83-1.85,2.43v5.4H56.1v-9.45H58v.9a2.61,2.61,0,0,1,2.16-1.1,2.67,2.67,0,0,1,1.6.4Z" transform="translate(-9.5 -9.3)"/><path class="cls-3" d="M68.42,182.71v-.93a3.76,3.76,0,0,1-2.6,1.13,3,3,0,0,1-3.27-3.19c0-2.1,1.62-3.06,3.76-3.06a5.34,5.34,0,0,1,2.11.36v-.7c0-1-.63-1.6-1.79-1.6a4.79,4.79,0,0,0-2.46.59l-.72-1.4a5.85,5.85,0,0,1,3.24-.85c2.1,0,3.54,1,3.54,3.17v6.48Zm0-4a4.74,4.74,0,0,0-2.17-.42c-1.18,0-1.94.54-1.94,1.41s.6,1.57,1.82,1.57A3,3,0,0,0,68.42,180Z" transform="translate(-9.5 -9.3)"/><path class="cls-3" d="M78.59,182.71v-.9a3.62,3.62,0,0,1-2.47,1.1c-2,0-3.64-1.48-3.64-5.08,0-3.24,1.77-4.77,3.73-4.77a3.41,3.41,0,0,1,2.38,1.08v-3.6l1.83-.95v13.12Zm0-6.7a3,3,0,0,0-2.21-1.24c-1.33,0-2,1-2,3,0,2.38.75,3.42,2.12,3.42A2.87,2.87,0,0,0,78.6,180Z" transform="translate(-9.5 -9.3)"/><path class="cls-3" d="M86.87,182.91c-2.38,0-4.16-2-4.16-4.92s1.83-4.93,4.21-4.93,4.21,1.93,4.21,4.88C91.13,181.07,89.3,182.91,86.87,182.91Zm0-8.08c-1.41,0-2.27,1.24-2.27,3.11,0,2.07,1,3.21,2.36,3.21s2.32-1.43,2.32-3.16C89.26,176.07,88.34,174.83,86.85,174.83Z" transform="translate(-9.5 -9.3)"/><path class="cls-3" d="M96.3,182.91a6.39,6.39,0,0,1-3.62-1.21l.84-1.4a5,5,0,0,0,2.76.94c1.17,0,1.73-.38,1.73-1.05s-.83-1.06-2.2-1.58c-2-.8-2.77-1.48-2.77-3,0-1.7,1.33-2.58,3.22-2.58a5.6,5.6,0,0,1,3.21,1.05l-.81,1.42a4.13,4.13,0,0,0-2.45-.81c-.9,0-1.3.36-1.3.86s.32.81,1.75,1.37c2.1.81,3.18,1.39,3.18,3.17C99.84,182.21,98.15,182.91,96.3,182.91Z" transform="translate(-9.5 -9.3)"/><path class="cls-3" d="M105.1,186.19l-.63-1.41c2.66-.12,3.24-.84,3.24-2.81v-.16a3.58,3.58,0,0,1-2.45,1.1c-2,0-3.64-1.48-3.64-5.08,0-3.24,1.79-4.77,3.73-4.77a3.31,3.31,0,0,1,2.36,1.08v-.88h1.85v8.55C109.56,184.69,108.52,186.08,105.1,186.19ZM107.75,176a3.07,3.07,0,0,0-2.22-1.24c-1.33,0-2,1-2,3,0,2.38.75,3.42,2.12,3.42a2.91,2.91,0,0,0,2.15-1.21Z" transform="translate(-9.5 -9.3)"/><path class="cls-3" d="M120.92,182.71h-1.58l-1.28-4.77c-.2-.72-.4-1.57-.49-2-.09.45-.29,1.32-.48,2l-1.26,4.75h-1.59l-2.59-9.45h1.84l1.11,4.59c.18.72.38,1.62.47,2.07.11-.47.32-1.33.52-2.07l1.26-4.59h1.5l1.27,4.61c.2.74.4,1.58.51,2,.11-.47.29-1.35.47-2.07l1.11-4.59h1.84Z" transform="translate(-9.5 -9.3)"/><path class="cls-3" d="M265.23,175.22a2.81,2.81,0,0,0-1.42-.34c-1.17,0-1.85.83-1.85,2.43v5.4H260.1v-9.45H262v.9a2.61,2.61,0,0,1,2.16-1.1,2.67,2.67,0,0,1,1.6.4Z" transform="translate(-9.5 -9.3)"/><path class="cls-3" d="M272.42,182.71v-.93a3.76,3.76,0,0,1-2.6,1.13,3,3,0,0,1-3.27-3.19c0-2.1,1.62-3.06,3.76-3.06a5.34,5.34,0,0,1,2.11.36v-.7c0-1-.63-1.6-1.79-1.6a4.79,4.79,0,0,0-2.46.59l-.72-1.4a5.85,5.85,0,0,1,3.24-.85c2.1,0,3.54,1,3.54,3.17v6.48Zm0-4a4.74,4.74,0,0,0-2.17-.42c-1.18,0-1.94.54-1.94,1.41s.6,1.57,1.82,1.57a3,3,0,0,0,2.29-1.21Z" transform="translate(-9.5 -9.3)"/><path class="cls-3" d="M282.59,182.71v-.9a3.62,3.62,0,0,1-2.47,1.1c-2,0-3.64-1.48-3.64-5.08,0-3.24,1.77-4.77,3.73-4.77a3.41,3.41,0,0,1,2.38,1.08v-3.6l1.83-.95v13.12Zm0-6.7a3,3,0,0,0-2.21-1.24c-1.33,0-2.05,1-2.05,3,0,2.38.75,3.42,2.12,3.42A2.87,2.87,0,0,0,282.6,180Z" transform="translate(-9.5 -9.3)"/><path class="cls-3" d="M290.87,182.91c-2.38,0-4.16-2-4.16-4.92s1.83-4.93,4.21-4.93,4.21,1.93,4.21,4.88C295.13,181.07,293.3,182.91,290.87,182.91Zm0-8.08c-1.41,0-2.27,1.24-2.27,3.11,0,2.07.95,3.21,2.36,3.21s2.32-1.43,2.32-3.16C293.26,176.07,292.34,174.83,290.85,174.83Z" transform="translate(-9.5 -9.3)"/><path class="cls-3" d="M300.3,182.91a6.39,6.39,0,0,1-3.62-1.21l.84-1.4a5,5,0,0,0,2.76.94c1.17,0,1.73-.38,1.73-1.05s-.83-1.06-2.2-1.58c-2-.8-2.77-1.48-2.77-3,0-1.7,1.33-2.58,3.22-2.58a5.6,5.6,0,0,1,3.21,1.05l-.81,1.42a4.13,4.13,0,0,0-2.45-.81c-.9,0-1.3.36-1.3.86s.32.81,1.75,1.37c2.1.81,3.18,1.39,3.18,3.17C303.84,182.21,302.15,182.91,300.3,182.91Z" transform="translate(-9.5 -9.3)"/><path class="cls-3" d="M309.1,186.19l-.63-1.41c2.66-.12,3.24-.84,3.24-2.81v-.16a3.58,3.58,0,0,1-2.45,1.1c-2,0-3.64-1.48-3.64-5.08,0-3.24,1.79-4.77,3.73-4.77a3.31,3.31,0,0,1,2.36,1.08v-.88h1.85v8.55C313.56,184.69,312.52,186.08,309.1,186.19ZM311.75,176a3.07,3.07,0,0,0-2.22-1.24c-1.33,0-2,1-2,3,0,2.38.75,3.42,2.12,3.42a2.91,2.91,0,0,0,2.15-1.21Z" transform="translate(-9.5 -9.3)"/><path class="cls-3" d="M324.92,182.71h-1.58l-1.28-4.77c-.2-.72-.4-1.57-.49-2-.09.45-.29,1.32-.48,2l-1.26,4.75h-1.59l-2.59-9.45h1.84l1.11,4.59c.18.72.38,1.62.47,2.07.11-.47.32-1.33.52-2.07l1.26-4.59h1.5l1.27,4.61c.2.74.4,1.58.51,2,.11-.47.29-1.35.47-2.07l1.11-4.59h1.84Z" transform="translate(-9.5 -9.3)"/><path class="cls-4" d="M246.48,391.91c-3.26,0-5.33-2.68-5.33-6.5s2.07-6.5,5.33-6.5a4.51,4.51,0,0,1,4.28,2.36l-1.67,1a2.74,2.74,0,0,0-2.61-1.51c-2.2,0-3.39,1.78-3.39,4.61s1.19,4.61,3.39,4.61a3,3,0,0,0,2.77-1.57l1.57,1.05A4.8,4.8,0,0,1,246.48,391.91Z" transform="translate(-9.5 -9.3)"/><path class="cls-4" d="M260.52,387.64h-6.25c.2,1.82,1.22,2.6,2.38,2.6a3.3,3.3,0,0,0,2.05-.76l1.1,1.19a4.41,4.41,0,0,1-3.26,1.24c-2.22,0-4.09-1.78-4.09-4.92s1.69-4.93,4.14-4.93c2.69,0,4,2.18,4,4.74A8,8,0,0,1,260.52,387.64Zm-4-3.9c-1.25,0-2,.86-2.16,2.37h4.39C258.61,384.82,258,383.74,256.47,383.74Z" transform="translate(-9.5 -9.3)"/><path class="cls-4" d="M267.09,391.91a3.33,3.33,0,0,1-2.38-1.08v3.4l-1.84,1V382.26h1.84v.9a3.6,3.6,0,0,1,2.47-1.1c2,0,3.63,1.48,3.63,5.08C270.81,390.38,269.05,391.91,267.09,391.91Zm-.25-8.14a2.92,2.92,0,0,0-2.15,1.21v4a3,3,0,0,0,2.22,1.24c1.33,0,2-1,2-3C269,384.82,268.2,383.77,266.84,383.77Z" transform="translate(-9.5 -9.3)"/><path class="cls-4" d="M278.88,391.71v-5.35c0-1.91-.72-2.59-1.95-2.59s-1.94.88-1.94,2.41v5.53h-1.86V379.56l1.86-1v4.57a2.88,2.88,0,0,1,2.38-1.1c2.19,0,3.36,1.44,3.36,4.23v5.42Z" transform="translate(-9.5 -9.3)"/><path class="cls-4" d="M293.26,391.91c-3.26,0-5.33-2.68-5.33-6.5s2.07-6.5,5.33-6.5a4.51,4.51,0,0,1,4.28,2.36l-1.67,1a2.74,2.74,0,0,0-2.61-1.51c-2.2,0-3.39,1.78-3.39,4.61s1.19,4.61,3.39,4.61a3,3,0,0,0,2.77-1.57l1.57,1.05A4.8,4.8,0,0,1,293.26,391.91Z" transform="translate(-9.5 -9.3)"/><path class="cls-4" d="M300.13,391.71V379.56l1.86-1v13.12Z" transform="translate(-9.5 -9.3)"/><path class="cls-4" d="M310.49,391.71v-.9a2.89,2.89,0,0,1-2.38,1.1c-2.2,0-3.37-1.44-3.37-4.23v-5.42h1.86v5.35c0,1.91.72,2.59,1.94,2.59s1.95-.88,1.95-2.41v-5.53h1.85v9.45Z" transform="translate(-9.5 -9.3)"/><path class="cls-4" d="M318.13,391.91a6.38,6.38,0,0,1-3.61-1.21l.84-1.4a5,5,0,0,0,2.76.94c1.17,0,1.72-.38,1.72-1.05s-.82-1.06-2.19-1.58c-2-.8-2.77-1.48-2.77-3,0-1.7,1.33-2.58,3.22-2.58a5.54,5.54,0,0,1,3.2,1.05l-.81,1.42a4.11,4.11,0,0,0-2.45-.81c-.9,0-1.29.36-1.29.86s.32.81,1.74,1.37c2.11.81,3.19,1.39,3.19,3.17C321.68,391.21,320,391.91,318.13,391.91Z" transform="translate(-9.5 -9.3)"/><path class="cls-4" d="M328.39,391.48a3.78,3.78,0,0,1-1.81.43c-1.32,0-2.13-.81-2.13-2.5V384H323.1v-1.69h1.35v-2.7l1.82-1v3.67h2.34V384h-2.34v5.13c0,.88.29,1.14,1,1.14a2.93,2.93,0,0,0,1.37-.38Z" transform="translate(-9.5 -9.3)"/><path class="cls-4" d="M338.38,387.64h-6.24c.19,1.82,1.22,2.6,2.37,2.6a3.31,3.31,0,0,0,2.06-.76l1.1,1.19a4.41,4.41,0,0,1-3.26,1.24c-2.22,0-4.09-1.78-4.09-4.92s1.69-4.93,4.14-4.93c2.68,0,4,2.18,4,4.74A7.59,7.59,0,0,1,338.38,387.64Zm-4.05-3.9c-1.24,0-2,.86-2.16,2.37h4.4C336.48,384.82,335.86,383.74,334.33,383.74Z" transform="translate(-9.5 -9.3)"/><path class="cls-4" d="M345.87,384.22a2.81,2.81,0,0,0-1.42-.34c-1.17,0-1.86.83-1.86,2.43v5.4h-1.85v-9.45h1.85v.9a2.93,2.93,0,0,1,3.77-.7Z" transform="translate(-9.5 -9.3)"/><path class="cls-3" d="M469.23,175.22a2.81,2.81,0,0,0-1.42-.34c-1.17,0-1.85.83-1.85,2.43v5.4H464.1v-9.45H466v.9a2.61,2.61,0,0,1,2.16-1.1,2.67,2.67,0,0,1,1.6.4Z" transform="translate(-9.5 -9.3)"/><path class="cls-3" d="M476.42,182.71v-.93a3.76,3.76,0,0,1-2.6,1.13,3,3,0,0,1-3.27-3.19c0-2.1,1.62-3.06,3.76-3.06a5.34,5.34,0,0,1,2.11.36v-.7c0-1-.63-1.6-1.79-1.6a4.79,4.79,0,0,0-2.46.59l-.72-1.4a5.85,5.85,0,0,1,3.24-.85c2.1,0,3.54,1,3.54,3.17v6.48Zm0-4a4.74,4.74,0,0,0-2.17-.42c-1.18,0-1.94.54-1.94,1.41s.6,1.57,1.82,1.57a3,3,0,0,0,2.29-1.21Z" transform="translate(-9.5 -9.3)"/><path class="cls-3" d="M486.59,182.71v-.9a3.62,3.62,0,0,1-2.47,1.1c-2,0-3.64-1.48-3.64-5.08,0-3.24,1.77-4.77,3.73-4.77a3.41,3.41,0,0,1,2.38,1.08v-3.6l1.83-.95v13.12Zm0-6.7a3,3,0,0,0-2.21-1.24c-1.33,0-2.05,1-2.05,3,0,2.38.75,3.42,2.12,3.42A2.87,2.87,0,0,0,486.6,180Z" transform="translate(-9.5 -9.3)"/><path class="cls-3" d="M494.87,182.91c-2.38,0-4.16-2-4.16-4.92s1.83-4.93,4.21-4.93,4.21,1.93,4.21,4.88C499.13,181.07,497.3,182.91,494.87,182.91Zm0-8.08c-1.41,0-2.27,1.24-2.27,3.11,0,2.07.95,3.21,2.36,3.21s2.32-1.43,2.32-3.16C497.26,176.07,496.34,174.83,494.85,174.83Z" transform="translate(-9.5 -9.3)"/><path class="cls-3" d="M504.3,182.91a6.39,6.39,0,0,1-3.62-1.21l.84-1.4a5,5,0,0,0,2.76.94c1.17,0,1.73-.38,1.73-1.05s-.83-1.06-2.2-1.58c-2-.8-2.77-1.48-2.77-3,0-1.7,1.33-2.58,3.22-2.58a5.6,5.6,0,0,1,3.21,1.05l-.81,1.42a4.13,4.13,0,0,0-2.45-.81c-.9,0-1.3.36-1.3.86s.32.81,1.75,1.37c2.1.81,3.18,1.39,3.18,3.17C507.84,182.21,506.15,182.91,504.3,182.91Z" transform="translate(-9.5 -9.3)"/><path class="cls-3" d="M513.1,186.19l-.63-1.41c2.66-.12,3.24-.84,3.24-2.81v-.16a3.58,3.58,0,0,1-2.45,1.1c-2,0-3.64-1.48-3.64-5.08,0-3.24,1.79-4.77,3.73-4.77a3.31,3.31,0,0,1,2.36,1.08v-.88h1.85v8.55C517.56,184.69,516.52,186.08,513.1,186.19ZM515.75,176a3.07,3.07,0,0,0-2.22-1.24c-1.33,0-2,1-2,3,0,2.38.75,3.42,2.12,3.42a2.91,2.91,0,0,0,2.15-1.21Z" transform="translate(-9.5 -9.3)"/><path class="cls-3" d="M528.92,182.71h-1.58l-1.28-4.77c-.2-.72-.4-1.57-.49-2-.09.45-.29,1.32-.48,2l-1.26,4.75h-1.59l-2.59-9.45h1.84l1.11,4.59c.18.72.38,1.62.47,2.07.11-.47.32-1.33.52-2.07l1.26-4.59h1.5l1.27,4.61c.2.74.4,1.58.51,2,.11-.47.29-1.35.47-2.07l1.11-4.59h1.84Z" transform="translate(-9.5 -9.3)"/><path class="cls-3" d="M401.09,276.94v8.36h-1.47v-8.36h-2.86v-1.45H404v1.45Z" transform="translate(-9.5 -9.3)"/><path class="cls-3" d="M408.26,279.47a2.14,2.14,0,0,0-1.11-.27c-.91,0-1.44.65-1.44,1.9v4.2h-1.45V278h1.45v.69a2,2,0,0,1,1.68-.85,2.05,2.05,0,0,1,1.24.31Z" transform="translate(-9.5 -9.3)"/><path class="cls-3" d="M413.84,285.3v-.73a2.9,2.9,0,0,1-2,.88,2.37,2.37,0,0,1-2.55-2.48c0-1.64,1.26-2.38,2.92-2.38a4.07,4.07,0,0,1,1.64.28v-.54c0-.8-.49-1.25-1.38-1.25a3.72,3.72,0,0,0-1.92.46l-.56-1.09a4.5,4.5,0,0,1,2.52-.66c1.64,0,2.76.8,2.76,2.47v5Zm0-3.14a3.56,3.56,0,0,0-1.68-.32c-.92,0-1.51.42-1.51,1.09s.46,1.22,1.41,1.22a2.31,2.31,0,0,0,1.78-.94Z" transform="translate(-9.5 -9.3)"/><path class="cls-3" d="M421.8,285.3v-4.16c0-1.49-.56-2-1.52-2s-1.51.69-1.51,1.88v4.3h-1.44V278h1.44v.69a2.25,2.25,0,0,1,1.85-.85c1.71,0,2.62,1.12,2.62,3.29v4.22Z" transform="translate(-9.5 -9.3)"/><path class="cls-3" d="M427.69,285.45a5,5,0,0,1-2.82-.94l.66-1.09a3.85,3.85,0,0,0,2.14.73c.91,0,1.35-.29,1.35-.81s-.65-.83-1.71-1.23c-1.58-.62-2.16-1.15-2.16-2.32s1-2,2.51-2a4.4,4.4,0,0,1,2.49.81l-.63,1.11a3.19,3.19,0,0,0-1.9-.63c-.7,0-1,.28-1,.67s.25.63,1.36,1.07c1.64.63,2.48,1.07,2.48,2.46C430.45,284.91,429.13,285.45,427.69,285.45Z" transform="translate(-9.5 -9.3)"/><path class="cls-3" d="M432.36,285.3v-9.46l1.45-.75V285.3Z" transform="translate(-9.5 -9.3)"/><path class="cls-3" d="M440.22,285.3v-.73a2.92,2.92,0,0,1-2,.88,2.37,2.37,0,0,1-2.55-2.48c0-1.64,1.26-2.38,2.93-2.38a4.1,4.1,0,0,1,1.64.28v-.54c0-.8-.49-1.25-1.39-1.25a3.77,3.77,0,0,0-1.92.46l-.56-1.09a4.53,4.53,0,0,1,2.53-.66c1.63,0,2.75.8,2.75,2.47v5Zm0-3.14a3.59,3.59,0,0,0-1.68-.32c-.93,0-1.51.42-1.51,1.09s.46,1.22,1.41,1.22a2.33,2.33,0,0,0,1.78-.94Z" transform="translate(-9.5 -9.3)"/><path class="cls-3" d="M447.22,285.12a3,3,0,0,1-1.42.33c-1,0-1.65-.63-1.65-1.94v-4.25h-1V278h1v-2.11l1.42-.75V278h1.82v1.31h-1.82v4c0,.69.22.89.75.89a2.27,2.27,0,0,0,1.07-.3Z" transform="translate(-9.5 -9.3)"/><path class="cls-3" d="M455,282.13h-4.86c.15,1.42.95,2,1.85,2a2.59,2.59,0,0,0,1.6-.59l.85.93a3.45,3.45,0,0,1-2.54,1c-1.72,0-3.18-1.38-3.18-3.82s1.32-3.84,3.23-3.84c2.08,0,3.09,1.7,3.09,3.68C455,281.74,455,282,455,282.13Zm-3.15-3c-1,0-1.56.68-1.68,1.85h3.42C453.5,279.93,453,279.09,451.84,279.09Z" transform="translate(-9.5 -9.3)"/><path class="cls-3" d="M461.25,285.3v-.7a2.82,2.82,0,0,1-1.92.85c-1.58,0-2.83-1.15-2.83-3.95,0-2.52,1.37-3.71,2.9-3.71a2.62,2.62,0,0,1,1.85.84v-2.8l1.43-.74V285.3Zm0-5.21a2.33,2.33,0,0,0-1.72-1c-1,0-1.6.79-1.6,2.34,0,1.85.59,2.66,1.65,2.66a2.25,2.25,0,0,0,1.67-.94Z" transform="translate(-9.5 -9.3)"/><path class="cls-3" d="M469.38,277a.93.93,0,1,1,.92-.92A.93.93,0,0,1,469.38,277Zm-.73,8.31V278h1.44v7.35Z" transform="translate(-9.5 -9.3)"/><path class="cls-3" d="M476.76,285.3v-4.16c0-1.49-.56-2-1.51-2s-1.52.69-1.52,1.88v4.3h-1.44V278h1.44v.69a2.27,2.27,0,0,1,1.85-.85c1.71,0,2.62,1.12,2.62,3.29v4.22Z" transform="translate(-9.5 -9.3)"/><path class="cls-3" d="M483.72,285.12a3,3,0,0,1-1.42.33c-1,0-1.65-.63-1.65-1.94v-4.25h-1V278h1v-2.11l1.41-.75V278h1.83v1.31h-1.83v4c0,.69.23.89.76.89a2.27,2.27,0,0,0,1.07-.3Z" transform="translate(-9.5 -9.3)"/><path class="cls-3" d="M488.45,285.45c-1.85,0-3.24-1.52-3.24-3.82s1.43-3.84,3.28-3.84,3.28,1.5,3.28,3.8S490.34,285.45,488.45,285.45Zm0-6.29c-1.1,0-1.77,1-1.77,2.43,0,1.61.74,2.49,1.83,2.49s1.81-1.11,1.81-2.45C490.31,280.13,489.6,279.16,488.44,279.16Z" transform="translate(-9.5 -9.3)"/><path class="cls-3" d="M406.35,302.25c-2.53,0-4.14-2.08-4.14-5.05s1.61-5.06,4.14-5.06a3.53,3.53,0,0,1,3.34,1.83l-1.31.82a2.12,2.12,0,0,0-2-1.18c-1.71,0-2.63,1.39-2.63,3.59s.92,3.58,2.63,3.58a2.32,2.32,0,0,0,2.16-1.22l1.22.81A3.73,3.73,0,0,1,406.35,302.25Z" transform="translate(-9.5 -9.3)"/><path class="cls-3" d="M417.28,298.93h-4.87c.16,1.42,1,2,1.85,2a2.55,2.55,0,0,0,1.6-.59l.85.93a3.42,3.42,0,0,1-2.53,1c-1.72,0-3.18-1.38-3.18-3.82s1.32-3.84,3.22-3.84c2.09,0,3.1,1.69,3.1,3.68C417.32,298.54,417.29,298.78,417.28,298.93Zm-3.16-3c-1,0-1.55.68-1.68,1.85h3.42C415.79,296.73,415.31,295.89,414.12,295.89Z" transform="translate(-9.5 -9.3)"/><path class="cls-3" d="M422.38,302.25a2.62,2.62,0,0,1-1.85-.84v2.65l-1.43.74V294.74h1.43v.71a2.78,2.78,0,0,1,1.92-.86c1.59,0,2.83,1.15,2.83,4C425.28,301.06,423.91,302.25,422.38,302.25Zm-.19-6.33a2.25,2.25,0,0,0-1.67.94V300a2.33,2.33,0,0,0,1.72,1c1,0,1.6-.78,1.6-2.34C423.84,296.73,423.25,295.92,422.19,295.92Z" transform="translate(-9.5 -9.3)"/><path class="cls-3" d="M431.55,302.1v-4.16c0-1.49-.56-2-1.51-2s-1.51.69-1.51,1.88v4.3h-1.45v-9.46l1.45-.75v3.56a2.23,2.23,0,0,1,1.85-.86c1.71,0,2.62,1.12,2.62,3.29v4.22Z" transform="translate(-9.5 -9.3)"/><path class="cls-3" d="M444.35,298.09l2,4h-1.69l-2-3.88H440.5v3.88h-1.45v-9.81h4.31a2.83,2.83,0,0,1,3.15,2.93A2.71,2.71,0,0,1,444.35,298.09Zm-1-4.41H440.5v3.15h2.86a1.47,1.47,0,0,0,1.66-1.57A1.5,1.5,0,0,0,443.36,293.68Z" transform="translate(-9.5 -9.3)"/><path class="cls-3" d="M454.14,298.93h-4.86c.15,1.42,1,2,1.85,2a2.54,2.54,0,0,0,1.59-.59l.86.93a3.46,3.46,0,0,1-2.54,1c-1.72,0-3.18-1.38-3.18-3.82s1.32-3.84,3.22-3.84c2.09,0,3.1,1.69,3.1,3.68C454.18,298.54,454.15,298.78,454.14,298.93Zm-3.15-3c-1,0-1.56.68-1.69,1.85h3.42C452.65,296.73,452.18,295.89,451,295.89Z" transform="translate(-9.5 -9.3)"/><path class="cls-3" d="M460.39,304.8v-3.4a2.77,2.77,0,0,1-1.91.85c-1.59,0-2.83-1.15-2.83-3.95,0-2.52,1.37-3.71,2.89-3.71a2.58,2.58,0,0,1,1.85.84v-.69h1.43v9.32Zm0-7.91a2.35,2.35,0,0,0-1.72-1c-1,0-1.6.78-1.6,2.34,0,1.85.59,2.66,1.65,2.66a2.25,2.25,0,0,0,1.67-.94Z" transform="translate(-9.5 -9.3)"/><path class="cls-3" d="M468.36,302.1v-.7a2.25,2.25,0,0,1-1.85.85c-1.71,0-2.62-1.12-2.62-3.29v-4.22h1.44v4.16c0,1.49.56,2,1.52,2s1.51-.68,1.51-1.88v-4.3h1.44v7.36Z" transform="translate(-9.5 -9.3)"/><path class="cls-3" d="M477.85,298.93H473c.16,1.42,1,2,1.85,2a2.55,2.55,0,0,0,1.6-.59l.85.93a3.42,3.42,0,0,1-2.53,1c-1.73,0-3.18-1.38-3.18-3.82s1.31-3.84,3.22-3.84c2.09,0,3.1,1.69,3.1,3.68A5,5,0,0,1,477.85,298.93Zm-3.15-3c-1,0-1.55.68-1.68,1.85h3.42C476.37,296.73,475.89,295.89,474.7,295.89Z" transform="translate(-9.5 -9.3)"/><path class="cls-3" d="M481.92,302.25a5,5,0,0,1-2.81-.94l.66-1.09a3.8,3.8,0,0,0,2.14.73c.91,0,1.34-.29,1.34-.81s-.64-.83-1.7-1.24c-1.59-.61-2.16-1.14-2.16-2.31s1-2,2.51-2a4.43,4.43,0,0,1,2.49.81l-.63,1.11a3.21,3.21,0,0,0-1.91-.63c-.7,0-1,.28-1,.67s.25.63,1.35,1.07c1.64.63,2.48,1.08,2.48,2.46C484.68,301.71,483.37,302.25,481.92,302.25Z" transform="translate(-9.5 -9.3)"/><path class="cls-3" d="M489.9,301.92a3,3,0,0,1-1.41.33c-1,0-1.65-.63-1.65-1.94v-4.25h-1v-1.32h1v-2.1l1.41-.75v2.85h1.82v1.32h-1.82v4c0,.69.23.89.76.89a2.2,2.2,0,0,0,1.06-.3Z" transform="translate(-9.5 -9.3)"/><path class="cls-3" d="M103.19,98.69l2,4H103.5l-2-3.88H99.34v3.88H97.9V92.89h4.3a2.83,2.83,0,0,1,3.15,2.93A2.71,2.71,0,0,1,103.19,98.69Zm-1-4.41H99.34v3.15h2.86a1.47,1.47,0,0,0,1.66-1.57A1.5,1.5,0,0,0,102.2,94.28Z" transform="translate(-9.5 -9.3)"/><path class="cls-3" d="M107.61,102.7V92.89h6.32v1.43h-4.85v2.43h2.82v1.43h-2.82v3.09h5.06v1.43Z" transform="translate(-9.5 -9.3)"/><path class="cls-3" d="M119,102.85a4.52,4.52,0,0,1-3.49-1.58l1-1a3.59,3.59,0,0,0,2.55,1.16c1.37,0,2-.48,2-1.43,0-.75-.58-1.13-2.21-1.62-2.08-.62-3.07-1.14-3.07-2.89s1.43-2.73,3.23-2.73a4.39,4.39,0,0,1,3.21,1.33l-1,1.05a3,3,0,0,0-2.29-.94c-1.15,0-1.64.56-1.64,1.22s.45,1,2.15,1.53c1.93.59,3.13,1.2,3.13,2.95S121.46,102.85,119,102.85Z" transform="translate(-9.5 -9.3)"/><path class="cls-3" d="M128.14,94.34v8.36h-1.47V94.34h-2.86V92.89H131v1.45Z" transform="translate(-9.5 -9.3)"/><path class="cls-3" d="M134.62,93.79c-.47,0-.67.18-.67.72v.84h1.36v1.34H134v6h-1.44v-6h-.95V95.35h.95v-1a1.67,1.67,0,0,1,1.86-1.85,4.57,4.57,0,0,1,1.09.14v1.26A2.82,2.82,0,0,0,134.62,93.79Z" transform="translate(-9.5 -9.3)"/><path class="cls-3" d="M141.5,102.7V102a2.27,2.27,0,0,1-1.85.85c-1.71,0-2.62-1.12-2.62-3.29V95.35h1.44v4.16c0,1.48.56,2,1.51,2s1.52-.68,1.52-1.87v-4.3h1.44v7.35Z" transform="translate(-9.5 -9.3)"/><path class="cls-3" d="M145.14,102.7V93.24l1.44-.75V102.7Z" transform="translate(-9.5 -9.3)"/><path class="cls-3" d="M103.88,119.5v-4.4H99.37v4.4H97.9v-9.81h1.47v4h4.51v-4h1.47v9.81Z" transform="translate(-9.5 -9.3)"/><path class="cls-3" d="M111.6,111.14v8.36h-1.47v-8.36h-2.85v-1.45h7.18v1.45Z" transform="translate(-9.5 -9.3)"/><path class="cls-3" d="M120.1,111.14v8.36h-1.47v-8.36h-2.86v-1.45H123v1.45Z" transform="translate(-9.5 -9.3)"/><path class="cls-3" d="M128.9,115.84h-2.57v3.66h-1.44v-9.81H129a2.89,2.89,0,0,1,3.16,3.07A2.93,2.93,0,0,1,128.9,115.84Zm.07-4.76h-2.64v3.38H129a1.53,1.53,0,0,0,1.68-1.7A1.55,1.55,0,0,0,129,111.08Z" transform="translate(-9.5 -9.3)"/><path class="cls-3" d="M133.16,120.76h-1.44l4.35-12.33h1.45Z" transform="translate(-9.5 -9.3)"/><path class="cls-3" d="M141.39,119.65a4.51,4.51,0,0,1-3.48-1.58l1.05-1a3.59,3.59,0,0,0,2.55,1.16c1.37,0,2-.48,2-1.43,0-.75-.58-1.13-2.22-1.62-2.07-.62-3.06-1.14-3.06-2.89s1.43-2.73,3.23-2.73a4.4,4.4,0,0,1,3.21,1.33l-1,1a3,3,0,0,0-2.28-.94c-1.15,0-1.64.56-1.64,1.22s.45,1,2.14,1.53c1.94.59,3.14,1.2,3.14,3S143.9,119.65,141.39,119.65Z" transform="translate(-9.5 -9.3)"/><path class="cls-3" d="M155,119.5v-.73a2.86,2.86,0,0,1-2,.88,2.37,2.37,0,0,1-2.55-2.48c0-1.64,1.26-2.38,2.92-2.38a4.07,4.07,0,0,1,1.64.28v-.54c0-.8-.49-1.25-1.38-1.25a3.72,3.72,0,0,0-1.92.46l-.56-1.09a4.58,4.58,0,0,1,2.52-.66c1.64,0,2.76.8,2.76,2.47v5Zm0-3.14a3.69,3.69,0,0,0-1.68-.32c-.92,0-1.51.42-1.51,1.09s.46,1.22,1.41,1.22a2.31,2.31,0,0,0,1.78-.94Z" transform="translate(-9.5 -9.3)"/><path class="cls-3" d="M163.11,114.26a2.4,2.4,0,0,0-1.79-.9c-1,0-1.73.94-1.73,2.44s.62,2.48,1.77,2.48a2.16,2.16,0,0,0,1.66-.91l.93.91a3.1,3.1,0,0,1-2.63,1.37c-1.8,0-3.18-1.51-3.18-3.81s1.43-3.85,3.22-3.85a3.24,3.24,0,0,1,2.6,1.25Z" transform="translate(-9.5 -9.3)"/><path class="cls-3" d="M170.18,114.26a2.41,2.41,0,0,0-1.79-.9c-1.06,0-1.73.94-1.73,2.44s.62,2.48,1.77,2.48a2.16,2.16,0,0,0,1.66-.91l.93.91a3.12,3.12,0,0,1-2.63,1.37c-1.8,0-3.18-1.51-3.18-3.81s1.42-3.85,3.22-3.85a3.24,3.24,0,0,1,2.6,1.25Z" transform="translate(-9.5 -9.3)"/><path class="cls-3" d="M178.55,116.33h-4.86c.15,1.42.95,2,1.85,2a2.54,2.54,0,0,0,1.59-.59l.86.93a3.46,3.46,0,0,1-2.54,1c-1.72,0-3.18-1.38-3.18-3.82s1.32-3.84,3.23-3.84c2.08,0,3.09,1.7,3.09,3.69C178.59,115.94,178.56,116.18,178.55,116.33Zm-3.15-3c-1,0-1.56.68-1.68,1.85h3.41C177.06,114.13,176.59,113.29,175.4,113.29Z" transform="translate(-9.5 -9.3)"/><path class="cls-3" d="M182.62,119.65a5,5,0,0,1-2.81-.93l.65-1.1a3.86,3.86,0,0,0,2.15.73c.91,0,1.34-.29,1.34-.81s-.64-.83-1.71-1.23c-1.58-.62-2.15-1.15-2.15-2.32s1-2,2.5-2a4.44,4.44,0,0,1,2.5.81l-.63,1.11a3.24,3.24,0,0,0-1.91-.63c-.7,0-1,.28-1,.67s.25.63,1.36,1.07c1.64.63,2.48,1.08,2.48,2.46C185.38,119.11,184.06,119.65,182.62,119.65Z" transform="translate(-9.5 -9.3)"/><path class="cls-3" d="M189.47,119.65a5.06,5.06,0,0,1-2.82-.93l.66-1.1a3.85,3.85,0,0,0,2.14.73c.91,0,1.35-.29,1.35-.81s-.65-.83-1.71-1.23c-1.58-.62-2.16-1.15-2.16-2.32s1-2,2.51-2a4.43,4.43,0,0,1,2.49.81l-.63,1.11a3.19,3.19,0,0,0-1.9-.63c-.7,0-1,.28-1,.67s.25.63,1.36,1.07c1.64.63,2.48,1.08,2.48,2.46C192.23,119.11,190.91,119.65,189.47,119.65Z" transform="translate(-9.5 -9.3)"/><polyline class="cls-5" points="80 197 80 376.5 152.82 376.5"/><polygon class="cls-3" points="151.37 381.49 160 376.5 151.37 371.51 151.37 381.49"/><polyline class="cls-5" points="488 197 488 376.5 415.18 376.5"/><polygon class="cls-3" points="416.63 371.51 408 376.5 416.63 381.49 416.63 371.51"/><line class="cls-5" x1="284" y1="197" x2="284" y2="339.82"/><polygon class="cls-3" points="279.01 338.37 284 347 288.99 338.37 279.01 338.37"/><line class="cls-5" x1="80" y1="59" x2="80" y2="130.82"/><polygon class="cls-3" points="75.01 129.37 80 138 84.99 129.37 75.01 129.37"/><line class="cls-5" x1="284" y1="59" x2="284" y2="130.82"/><polygon class="cls-3" points="279.01 129.37 284 138 288.99 129.37 279.01 129.37"/><line class="cls-5" x1="488" y1="59" x2="488" y2="130.82"/><polygon class="cls-3" points="483.01 129.37 488 138 492.99 129.37 483.01 129.37"/></svg>