<?xml version="1.0" encoding="utf-8"?>
<!-- Generator: Adobe Illustrator 22.0.1, SVG Export Plug-In . SVG Version: 6.00 Build 0)  -->
<svg version="1.1" id="Layer_1" xmlns="http://www.w3.org/2000/svg" xmlns:xlink="http://www.w3.org/1999/xlink" x="0px" y="0px"
	 width="1438px" height="993px" viewBox="0 0 1438 993" style="enable-background:new 0 0 1438 993;" xml:space="preserve">
<style type="text/css">
	.st0{fill:#3F9C35;stroke:#3F9C35;stroke-width:3;stroke-miterlimit:10;}
	.st1{fill:none;stroke:#4C4C4C;stroke-width:3;stroke-miterlimit:10;}
	.st2{fill:#4C4C4C;}
	.st3{fill:#FFFFFF;}
</style>
<rect x="931.7" y="729.3" class="st0" width="300.9" height="225.7"/>
<g>
	<g>
		<line class="st1" x1="441.5" y1="279.2" x2="914.5" y2="279.2"/>
		<g>
			<polygon class="st2" points="911,291.2 931.7,279.2 911,267.3 			"/>
		</g>
	</g>
</g>
<g>
	<g>
		<line class="st1" x1="1015.3" y1="729.3" x2="1015.3" y2="409.3"/>
		<g>
			<polygon class="st2" points="1027.3,412.8 1015.3,392.1 1003.4,412.8 			"/>
		</g>
	</g>
</g>
<g>
	<g>
		<line class="st1" x1="1165.8" y1="712.1" x2="1165.8" y2="392.1"/>
		<g>
			<polygon class="st2" points="1177.8,708.6 1165.8,729.3 1153.8,708.6 			"/>
		</g>
	</g>
</g>
<g>
	<g>
		<polyline class="st1" points="291,185 291,81 75.7,81 75.7,279.2 123.3,279.2 		"/>
		<g>
			<polygon class="st2" points="119.8,291.2 140.5,279.2 119.8,267.3 			"/>
		</g>
	</g>
</g>
<g>
	<g>
		<polyline class="st1" points="1081.1,190.4 1081.1,79.8 1296.4,79.8 1296.4,279.2 1248.8,279.2 		"/>
		<g>
			<polygon class="st2" points="1252.3,267.3 1231.6,279.2 1252.3,291.2 			"/>
		</g>
	</g>
</g>
<g>
	<g>
		<polyline class="st1" points="140.5,309.1 75.7,309.1 75.7,475.1 291,475.1 291,409.3 		"/>
		<g>
			<polygon class="st2" points="303,412.8 291,392.1 279,412.8 			"/>
		</g>
	</g>
</g>
<g>
	<g>
		<polyline class="st1" points="369.1,409.3 369.1,842.1 931.7,842.1 		"/>
		<g>
			<polygon class="st2" points="357.1,412.8 369.1,392.1 381,412.8 			"/>
		</g>
	</g>
</g>
<rect x="140.5" y="166.4" class="st0" width="300.9" height="225.7"/>
<rect x="931.7" y="166.4" class="st0" width="300.9" height="225.7"/>
<g>
	<path class="st2" d="M131.2,61c-3.5,0-6.5-1.5-8.5-3.8l2.5-2.5c1.6,1.7,3.9,2.8,6.2,2.8c3.3,0,4.9-1.2,4.9-3.5
		c0-1.8-1.4-2.8-5.4-3.9c-5-1.5-7.4-2.8-7.4-7c0-4.1,3.5-6.6,7.9-6.6c3.2,0,5.7,1.2,7.8,3.2l-2.5,2.5c-1.5-1.5-3.2-2.3-5.5-2.3
		c-2.8,0-4,1.4-4,3c0,1.7,1.1,2.5,5.2,3.7c4.7,1.4,7.6,2.9,7.6,7.2C140,58.1,137.3,61,131.2,61z"/>
	<path class="st2" d="M155.2,60.6v-1.7c-0.9,1.3-2.7,2.1-4.5,2.1c-4.1,0-6.4-2.7-6.4-8V42.8h3.5v10.1c0,3.6,1.4,4.9,3.7,4.9
		c2.3,0,3.7-1.7,3.7-4.6V42.8h3.5v17.8H155.2z"/>
	<path class="st2" d="M175.1,47.9c-1.5-1.5-2.8-2.2-4.4-2.2c-2.5,0-4.2,2.3-4.2,5.9c0,3.5,1.5,6,4.3,6c1.7,0,2.7-0.7,4-2.2l2.2,2.2
		c-1.4,1.8-3.2,3.3-6.4,3.3c-4.4,0-7.7-3.7-7.7-9.2c0-5.9,3.5-9.3,7.8-9.3c2.6,0,4.7,1.1,6.3,3L175.1,47.9z"/>
	<path class="st2" d="M192.3,47.9c-1.5-1.5-2.8-2.2-4.4-2.2c-2.5,0-4.2,2.3-4.2,5.9c0,3.5,1.5,6,4.3,6c1.7,0,2.7-0.7,4-2.2l2.2,2.2
		c-1.4,1.8-3.2,3.3-6.4,3.3c-4.4,0-7.7-3.7-7.7-9.2c0-5.9,3.5-9.3,7.8-9.3c2.6,0,4.7,1.1,6.3,3L192.3,47.9z"/>
	<path class="st2" d="M212.6,52.9h-11.8c0.4,3.4,2.3,4.9,4.5,4.9c1.5,0,2.7-0.5,3.9-1.4l2.1,2.2c-1.6,1.5-3.4,2.3-6.2,2.3
		c-4.2,0-7.7-3.4-7.7-9.3c0-6.1,3.2-9.3,7.8-9.3c5.1,0,7.5,4.1,7.5,8.9C212.7,52,212.6,52.6,212.6,52.9z M205,45.5
		c-2.3,0-3.8,1.6-4.1,4.5h8.3C209,47.6,207.8,45.5,205,45.5z"/>
	<path class="st2" d="M222.5,61c-2.4,0-5-1-6.8-2.3l1.6-2.7c1.7,1.2,3.5,1.8,5.2,1.8c2.2,0,3.3-0.7,3.3-2c0-1.4-1.6-2-4.1-3
		c-3.8-1.5-5.2-2.8-5.2-5.6c0-3.2,2.5-4.9,6.1-4.9c2.2,0,4.5,0.8,6.1,2l-1.5,2.7c-1.5-1-2.9-1.5-4.6-1.5c-1.7,0-2.4,0.7-2.4,1.6
		c0,0.9,0.6,1.5,3.3,2.6c4,1.5,6,2.6,6,6C229.2,59.7,226,61,222.5,61z"/>
	<path class="st2" d="M239.1,61c-2.4,0-5-1-6.8-2.3l1.6-2.7c1.7,1.2,3.5,1.8,5.2,1.8c2.2,0,3.3-0.7,3.3-2c0-1.4-1.6-2-4.1-3
		c-3.8-1.5-5.2-2.8-5.2-5.6c0-3.2,2.5-4.9,6.1-4.9c2.2,0,4.5,0.8,6.1,2l-1.5,2.7c-1.5-1-2.9-1.5-4.6-1.5c-1.7,0-2.4,0.7-2.4,1.6
		c0,0.9,0.6,1.5,3.3,2.6c4,1.5,6,2.6,6,6C245.8,59.7,242.6,61,239.1,61z"/>
</g>
<g>
	<path class="st2" d="M23.8,502.8v6.2h6.8v3.5h-6.8v10.6h-3.6v-23.8h15.3v3.5H23.8z"/>
	<path class="st2" d="M46.2,523.1v-1.8c-1.2,1.2-3,2.1-4.9,2.1c-2.9,0-6.2-1.6-6.2-6c0-4,3.1-5.8,7.1-5.8c1.7,0,3,0.2,4,0.7V511
		c0-1.9-1.2-3-3.4-3c-1.8,0-3.3,0.3-4.7,1.1l-1.4-2.7c1.7-1.1,3.6-1.6,6.1-1.6c4,0,6.7,1.9,6.7,6v12.2H46.2z M46.2,515.5
		c-1-0.5-2.2-0.8-4.1-0.8c-2.2,0-3.7,1-3.7,2.7c0,1.8,1.1,3,3.4,3c1.9,0,3.5-1.2,4.3-2.3V515.5z"/>
	<path class="st2" d="M56.6,502.9c-1.3,0-2.3-1-2.3-2.2c0-1.3,1-2.3,2.3-2.3c1.2,0,2.2,1,2.2,2.3C58.9,501.9,57.8,502.9,56.6,502.9z
		 M54.8,523.1v-17.8h3.5v17.8H54.8z"/>
	<path class="st2" d="M63.9,523.1v-22.9l3.5-1.8v24.8H63.9z"/>
	<path class="st2" d="M87.9,526.8c-3.4-3.2-6.6-7.8-6.6-13.9c0-6.4,3.2-10.8,6.6-14.1l1.8,1.5c-3,3.4-4.7,7.3-4.7,12.4
		c0,5.6,1.8,9.3,4.7,12.6L87.9,526.8z"/>
	<path class="st2" d="M103.4,523.1v-1.7c-0.9,1.3-2.7,2.1-4.5,2.1c-4.1,0-6.4-2.7-6.4-8v-10.2h3.5v10.1c0,3.6,1.4,4.9,3.7,4.9
		c2.3,0,3.7-1.7,3.7-4.6v-10.4h3.5v17.8H103.4z"/>
	<path class="st2" d="M122.9,523.1V513c0-3.6-1.4-4.9-3.7-4.9c-2.3,0-3.7,1.7-3.7,4.6v10.4h-3.5v-17.8h3.5v1.7
		c0.9-1.3,2.7-2.1,4.5-2.1c4.1,0,6.4,2.7,6.4,8v10.2H122.9z"/>
	<path class="st2" d="M142.2,523.1v-1.7c-1.3,1.2-2.8,2.1-4.7,2.1c-3.8,0-6.9-2.8-6.9-9.6c0-6.1,3.3-9,7-9c1.8,0,3.5,1,4.5,2v-6.8
		l3.5-1.8v24.8H142.2z M142.2,510.4c-0.8-1.1-2.4-2.3-4.2-2.3c-2.5,0-3.9,1.9-3.9,5.7c0,4.5,1.4,6.5,4,6.5c1.7,0,3.1-1.1,4-2.3
		V510.4z"/>
	<path class="st2" d="M165.2,515.4h-11.8c0.4,3.4,2.3,4.9,4.5,4.9c1.5,0,2.7-0.5,3.9-1.4l2.1,2.2c-1.6,1.5-3.4,2.3-6.2,2.3
		c-4.2,0-7.7-3.4-7.7-9.3c0-6.1,3.2-9.3,7.8-9.3c5.1,0,7.5,4.1,7.5,8.9C165.3,514.4,165.2,515,165.2,515.4z M157.6,508
		c-2.3,0-3.8,1.6-4.1,4.5h8.3C161.6,510.1,160.4,508,157.6,508z"/>
	<path class="st2" d="M179.4,508.9c-0.7-0.4-1.5-0.6-2.7-0.6c-2.2,0-3.5,1.6-3.5,4.6v10.2h-3.5v-17.8h3.5v1.7
		c0.8-1.2,2.3-2.1,4.1-2.1c1.4,0,2.3,0.3,3,0.7L179.4,508.9z"/>
	<path class="st2" d="M201.6,522.6c-0.8,0.5-2,0.8-3.4,0.8c-2.5,0-4-1.5-4-4.7v-10.3h-2.5v-3.2h2.5v-5.1l3.4-1.8v6.9h4.4v3.2h-4.4
		v9.7c0,1.7,0.5,2.1,1.8,2.1c0.9,0,1.9-0.3,2.6-0.7L201.6,522.6z"/>
	<path class="st2" d="M217.6,523.1V513c0-3.6-1.4-4.9-3.7-4.9c-2.3,0-3.7,1.7-3.7,4.6v10.4h-3.5v-22.9l3.5-1.8v8.6
		c0.9-1.3,2.7-2.1,4.5-2.1c4.1,0,6.4,2.7,6.4,8v10.2H217.6z"/>
	<path class="st2" d="M235.8,508.9c-0.7-0.4-1.5-0.6-2.7-0.6c-2.2,0-3.5,1.6-3.5,4.6v10.2h-3.5v-17.8h3.5v1.7
		c0.8-1.2,2.3-2.1,4.1-2.1c1.4,0,2.3,0.3,3,0.7L235.8,508.9z"/>
	<path class="st2" d="M253.9,515.4h-11.8c0.4,3.4,2.3,4.9,4.5,4.9c1.5,0,2.7-0.5,3.9-1.4l2.1,2.2c-1.6,1.5-3.4,2.3-6.2,2.3
		c-4.2,0-7.7-3.4-7.7-9.3c0-6.1,3.2-9.3,7.8-9.3c5.1,0,7.5,4.1,7.5,8.9C254,514.4,253.9,515,253.9,515.4z M246.2,508
		c-2.3,0-3.8,1.6-4.1,4.5h8.3C250.3,510.1,249.1,508,246.2,508z"/>
	<path class="st2" d="M263.8,523.5c-2.4,0-5-1-6.8-2.3l1.6-2.7c1.7,1.2,3.5,1.8,5.2,1.8c2.2,0,3.3-0.7,3.3-2c0-1.4-1.6-2-4.1-3
		c-3.8-1.5-5.2-2.8-5.2-5.6c0-3.2,2.5-4.9,6.1-4.9c2.2,0,4.5,0.8,6.1,2l-1.5,2.7c-1.5-1-2.9-1.5-4.6-1.5c-1.7,0-2.4,0.7-2.4,1.6
		c0,0.9,0.6,1.5,3.3,2.6c4,1.5,6,2.6,6,6C270.5,522.1,267.3,523.5,263.8,523.5z"/>
	<path class="st2" d="M285.8,523.1V513c0-3.6-1.4-4.9-3.7-4.9c-2.3,0-3.7,1.7-3.7,4.6v10.4H275v-22.9l3.5-1.8v8.6
		c0.9-1.3,2.7-2.1,4.5-2.1c4.1,0,6.4,2.7,6.4,8v10.2H285.8z"/>
	<path class="st2" d="M301.3,523.5c-4.5,0-7.9-3.7-7.9-9.3c0-5.8,3.5-9.3,8-9.3c4.6,0,8,3.6,8,9.2
		C309.4,520,305.9,523.5,301.3,523.5z M301.3,508.2c-2.7,0-4.3,2.3-4.3,5.9c0,3.9,1.8,6.1,4.5,6.1c2.7,0,4.4-2.7,4.4-5.9
		C305.9,510.5,304.1,508.2,301.3,508.2z"/>
	<path class="st2" d="M313.9,523.1v-22.9l3.5-1.8v24.8H313.9z"/>
	<path class="st2" d="M333.5,523.1v-1.7c-1.3,1.2-2.8,2.1-4.7,2.1c-3.8,0-6.9-2.8-6.9-9.6c0-6.1,3.3-9,7-9c1.8,0,3.5,1,4.5,2v-6.8
		l3.5-1.8v24.8H333.5z M333.5,510.4c-0.8-1.1-2.4-2.3-4.2-2.3c-2.5,0-3.9,1.9-3.9,5.7c0,4.5,1.4,6.5,4,6.5c1.7,0,3.1-1.1,4-2.3
		V510.4z"/>
	<path class="st2" d="M342.9,526.8l-1.8-1.5c3-3.4,4.7-7.3,4.7-12.4c0-5.6-1.8-9.3-4.7-12.6l1.8-1.5c3.4,3.2,6.6,7.8,6.6,13.9
		C349.6,519,346.4,523.5,342.9,526.8z"/>
</g>
<g>
	<path class="st3" d="M254.6,273.5c-0.8-1.6-2.2-2.6-4.4-2.6c-3.6,0-5.6,3.1-5.6,7.5c0,4.3,2.1,7.5,5.6,7.5c2.1,0,3.4-0.9,4.7-3
		l4,2.4c-1.6,3.4-4.5,5.4-8.8,5.4c-6.2,0-10.4-4.8-10.4-12.3c0-7.2,4.4-12.3,10.6-12.3c4.5,0,7.2,2.2,8.7,5.3L254.6,273.5z"/>
	<path class="st3" d="M263.1,290.4V268l4.7-2.3v24.8H263.1z"/>
	<path class="st3" d="M279.7,290.8c-4.7,0-8.1-3.8-8.1-9.3c0-5.5,3.4-9.3,8.1-9.3c4.7,0,8.1,3.8,8.1,9.3
		C287.8,287,284.3,290.8,279.7,290.8z M279.7,276.7c-2.2,0-3.3,2-3.3,4.8c0,2.8,1.1,4.8,3.3,4.8s3.3-2.3,3.3-4.8
		C283,278.8,281.9,276.7,279.7,276.7z"/>
	<path class="st3" d="M297.9,290.8c-2.8,0-5.6-0.8-7.5-2.1l1.6-3.6c1.9,1.1,3.9,1.6,6.2,1.6c1.8,0,2.4-0.4,2.4-1.4
		c0-0.8-0.6-1.2-2.6-1.8c-4.3-1.3-7-2.3-7-6.1c0-3.7,3-5.3,7.1-5.3c2.2,0,4.7,0.7,6.6,1.7l-1.5,3.7c-1.8-1-3.7-1.4-5.2-1.4
		c-1.9,0-2.4,0.4-2.4,1.2c0,0.7,0.5,1.1,3.7,2.1c3.2,1.1,5.9,2.2,5.9,5.8C305.2,289.3,301.9,290.8,297.9,290.8z"/>
	<path class="st3" d="M323.5,283h-10.7c0.2,2.4,2,3.4,3.7,3.4c1.3,0,2.4-0.5,3.1-1.3l3.3,2.8c-1.4,1.8-4,2.9-6.4,2.9
		c-5.1,0-8.4-3.6-8.4-9.3c0-5.5,3.4-9.3,8-9.3c4.8,0,7.5,4.2,7.5,9.3C323.5,282.2,323.5,282.7,323.5,283z M315.8,276.3
		c-1.7,0-2.8,1.4-2.9,3.2h6.1C318.8,277.9,317.9,276.3,315.8,276.3z"/>
	<path class="st3" d="M337.1,290.4v-1.1c-0.9,0.8-2.1,1.5-3.8,1.5c-3.8,0-6.9-2.9-6.9-9.5c0-5.3,2.5-9.1,6.9-9.1
		c1.6,0,2.9,0.6,3.8,1.4V268l4.7-2.3v24.8H337.1z M337.1,278.1c-0.7-1-1.8-1.5-3.2-1.5c-1.8,0-2.8,1.6-2.8,4.6
		c0,3.7,1.2,5.2,3.1,5.2c1.5,0,2.2-0.6,2.9-1.5V278.1z"/>
</g>
<g>
	<path class="st3" d="M1053.6,290.8c-6.5,0-10.3-5-10.3-12.3s3.8-12.3,10.3-12.3s10.3,5,10.3,12.3S1060,290.8,1053.6,290.8z
		 M1053.6,271c-3.8,0-5.4,3.3-5.4,7.5s1.6,7.5,5.4,7.5s5.4-3.3,5.4-7.5S1057.4,271,1053.6,271z"/>
	<path class="st3" d="M1076.4,290.8c-1.6,0-2.9-0.6-3.8-1.4v5.2l-4.7,2.3v-24.4h4.7v1.1c0.9-0.8,2.1-1.5,3.8-1.5
		c3.8,0,6.9,2.9,6.9,9.5C1083.4,287,1080.9,290.8,1076.4,290.8z M1075.6,276.6c-1.5,0-2.2,0.6-2.9,1.5v6.7c0.7,1,1.8,1.5,3.2,1.5
		c1.8,0,2.8-1.6,2.8-4.6C1078.6,278.1,1077.4,276.6,1075.6,276.6z"/>
	<path class="st3" d="M1101.6,283h-10.7c0.2,2.4,2,3.4,3.7,3.4c1.3,0,2.4-0.5,3.1-1.3l3.3,2.8c-1.4,1.8-4,2.9-6.4,2.9
		c-5.1,0-8.4-3.6-8.4-9.3c0-5.5,3.4-9.3,8-9.3c4.8,0,7.5,4.2,7.5,9.3C1101.6,282.2,1101.6,282.7,1101.6,283z M1093.9,276.3
		c-1.7,0-2.8,1.4-2.9,3.2h6.1C1096.9,277.9,1096,276.3,1093.9,276.3z"/>
	<path class="st3" d="M1116.1,290.4v-9.7c0-3.2-1.1-4.1-3-4.1s-3.1,1-3.1,4v9.8h-4.7v-17.8h4.7v1.2c0.8-0.9,2.3-1.6,4.2-1.6
		c4.6,0,6.6,3.1,6.6,8.2v10.1H1116.1z"/>
</g>
<g>
	<path class="st3" d="M1020.8,853.3v-10h-9.8v10h-4.8v-23.8h4.8v9.1h9.8v-9.1h4.8v23.8H1020.8z"/>
	<path class="st3" d="M1040.8,853.3v-1.2c-0.8,0.9-2.3,1.6-4,1.6c-3.3,0-6.7-2-6.7-6.4c0-3.9,3.2-5.9,7.2-5.9c1.6,0,2.7,0.3,3.4,0.7
		v-0.9c0-1.3-0.8-2.3-2.5-2.3c-2.1,0-3.3,0.3-4.9,1.2l-1.8-3.3c2.1-1.2,3.8-1.8,6.7-1.8c4.3,0,7.2,2.2,7.2,6.3v12H1040.8z
		 M1040.8,845.8c-0.8-0.5-1.6-0.7-3.3-0.7c-1.8,0-2.7,0.8-2.7,2.2c0,1.3,0.7,2.4,2.7,2.4c1.5,0,2.8-0.8,3.3-1.6V845.8z"/>
	<path class="st3" d="M1050,853.3v-22.4l4.7-2.3v24.8H1050z"/>
	<path class="st3" d="M1067,832.5c-1.4,0-1.7,0.4-1.7,1.4v1.5h3v4.4h-3v13.4h-4.7v-13.4h-2.1v-4.4h2.1v-2.1c0-3.3,1.8-4.7,5.1-4.7
		c1.2,0,2.1,0.2,3,0.5v3.8C1068.2,832.7,1067.7,832.5,1067,832.5z"/>
	<path class="st3" d="M1091.7,853.7c-6.5,0-10.3-5-10.3-12.3s3.8-12.3,10.3-12.3c6.5,0,10.3,5,10.3,12.3S1098.2,853.7,1091.7,853.7z
		 M1091.7,833.9c-3.8,0-5.4,3.3-5.4,7.5s1.6,7.5,5.4,7.5c3.8,0,5.4-3.3,5.4-7.5S1095.6,833.9,1091.7,833.9z"/>
	<path class="st3" d="M1114.6,853.7c-1.6,0-2.9-0.6-3.8-1.4v5.2l-4.7,2.3v-24.4h4.7v1.1c0.9-0.8,2.1-1.5,3.8-1.5
		c3.8,0,6.9,2.9,6.9,9.5C1121.5,849.9,1119,853.7,1114.6,853.7z M1113.7,839.5c-1.5,0-2.2,0.6-2.9,1.5v6.7c0.7,1,1.8,1.5,3.2,1.5
		c1.8,0,2.8-1.6,2.8-4.6C1116.8,841,1115.6,839.5,1113.7,839.5z"/>
	<path class="st3" d="M1139.7,845.9h-10.7c0.2,2.4,2,3.4,3.7,3.4c1.3,0,2.4-0.5,3.1-1.3l3.3,2.8c-1.4,1.8-4,2.9-6.4,2.9
		c-5.1,0-8.4-3.6-8.4-9.3c0-5.5,3.4-9.3,8-9.3c4.8,0,7.5,4.2,7.5,9.3C1139.8,845.1,1139.8,845.6,1139.7,845.9z M1132,839.2
		c-1.7,0-2.8,1.4-2.9,3.2h6.1C1135.1,840.8,1134.2,839.2,1132,839.2z"/>
	<path class="st3" d="M1154.3,853.3v-9.7c0-3.2-1.1-4.1-3-4.1s-3.1,1-3.1,4v9.8h-4.7v-17.8h4.7v1.2c0.8-0.9,2.3-1.6,4.2-1.6
		c4.6,0,6.6,3.1,6.6,8.2v10.1H1154.3z"/>
</g>
<g>
	<path class="st2" d="M508.4,238.7v6.2h6.8v3.5h-6.8V259h-3.6v-23.8h15.3v3.5H508.4z"/>
	<path class="st2" d="M530.8,259v-1.8c-1.2,1.2-3,2.1-4.9,2.1c-2.9,0-6.2-1.6-6.2-6c0-4,3.1-5.8,7.1-5.8c1.7,0,3,0.2,4,0.7v-1.3
		c0-1.9-1.2-3-3.4-3c-1.8,0-3.3,0.3-4.7,1.1l-1.4-2.7c1.7-1.1,3.6-1.6,6.1-1.6c4,0,6.7,1.9,6.7,6V259H530.8z M530.8,251.4
		c-1-0.5-2.2-0.8-4.1-0.8c-2.2,0-3.7,1-3.7,2.7c0,1.8,1.1,3,3.4,3c1.9,0,3.5-1.2,4.3-2.3V251.4z"/>
	<path class="st2" d="M541.2,238.8c-1.3,0-2.3-1-2.3-2.2c0-1.3,1-2.3,2.3-2.3c1.2,0,2.2,1,2.2,2.3
		C543.4,237.8,542.4,238.8,541.2,238.8z M539.4,259v-17.8h3.5V259H539.4z"/>
	<path class="st2" d="M548.4,259v-22.9l3.5-1.8V259H548.4z"/>
	<path class="st2" d="M572.5,262.7c-3.4-3.2-6.6-7.8-6.6-13.9c0-6.4,3.2-10.8,6.6-14.1l1.8,1.5c-3,3.4-4.7,7.3-4.7,12.4
		c0,5.6,1.8,9.3,4.7,12.6L572.5,262.7z"/>
	<path class="st2" d="M586.3,258.6c-0.8,0.5-2,0.8-3.4,0.8c-2.5,0-4-1.5-4-4.7v-10.3h-2.5v-3.2h2.5v-5.1l3.4-1.8v6.9h4.4v3.2h-4.4
		v9.7c0,1.7,0.5,2.1,1.8,2.1c0.9,0,1.9-0.3,2.6-0.7L586.3,258.6z"/>
	<path class="st2" d="M602.3,259v-10.1c0-3.6-1.4-4.9-3.7-4.9c-2.3,0-3.7,1.7-3.7,4.6V259h-3.5v-22.9l3.5-1.8v8.6
		c0.9-1.3,2.7-2.1,4.5-2.1c4.1,0,6.4,2.7,6.4,8V259H602.3z"/>
	<path class="st2" d="M620.5,244.9c-0.7-0.4-1.5-0.6-2.7-0.6c-2.2,0-3.5,1.6-3.5,4.6V259h-3.5v-17.8h3.5v1.7
		c0.8-1.2,2.3-2.1,4.1-2.1c1.4,0,2.3,0.3,3,0.7L620.5,244.9z"/>
	<path class="st2" d="M638.6,251.3h-11.8c0.4,3.4,2.3,4.9,4.5,4.9c1.5,0,2.7-0.5,3.9-1.4l2.1,2.2c-1.6,1.5-3.4,2.3-6.2,2.3
		c-4.2,0-7.7-3.4-7.7-9.3c0-6.1,3.2-9.3,7.8-9.3c5.1,0,7.5,4.1,7.5,8.9C638.7,250.4,638.6,250.9,638.6,251.3z M631,243.9
		c-2.3,0-3.8,1.6-4.1,4.5h8.3C635,246,633.8,243.9,631,243.9z"/>
	<path class="st2" d="M648.5,259.4c-2.4,0-5-1-6.8-2.3l1.6-2.7c1.7,1.2,3.5,1.8,5.2,1.8c2.2,0,3.3-0.7,3.3-2c0-1.4-1.6-2-4.1-3
		c-3.8-1.5-5.2-2.8-5.2-5.6c0-3.2,2.5-4.9,6.1-4.9c2.2,0,4.5,0.8,6.1,2l-1.5,2.7c-1.5-1-2.9-1.5-4.6-1.5c-1.7,0-2.4,0.7-2.4,1.6
		c0,0.9,0.6,1.5,3.3,2.6c4,1.5,6,2.6,6,6C655.2,258,652,259.4,648.5,259.4z"/>
	<path class="st2" d="M670.5,259v-10.1c0-3.6-1.4-4.9-3.7-4.9c-2.3,0-3.7,1.7-3.7,4.6V259h-3.5v-22.9l3.5-1.8v8.6
		c0.9-1.3,2.7-2.1,4.5-2.1c4.1,0,6.4,2.7,6.4,8V259H670.5z"/>
	<path class="st2" d="M686.1,259.4c-4.5,0-7.9-3.7-7.9-9.3c0-5.8,3.5-9.3,8-9.3c4.6,0,8,3.6,8,9.2
		C694.1,255.9,690.7,259.4,686.1,259.4z M686,244.1c-2.7,0-4.3,2.3-4.3,5.9c0,3.9,1.8,6.1,4.5,6.1c2.7,0,4.4-2.7,4.4-5.9
		C690.6,246.5,688.9,244.1,686,244.1z"/>
	<path class="st2" d="M698.6,259v-22.9l3.5-1.8V259H698.6z"/>
	<path class="st2" d="M718.2,259v-1.7c-1.3,1.2-2.8,2.1-4.7,2.1c-3.8,0-6.9-2.8-6.9-9.6c0-6.1,3.3-9,7-9c1.8,0,3.5,1,4.5,2V236
		l3.5-1.8V259H718.2z M718.2,246.4c-0.8-1.1-2.4-2.3-4.2-2.3c-2.5,0-3.9,1.9-3.9,5.7c0,4.5,1.4,6.5,4,6.5c1.7,0,3.1-1.1,4-2.3V246.4
		z"/>
	<path class="st2" d="M745.7,244.9c-0.7-0.4-1.5-0.6-2.7-0.6c-2.2,0-3.5,1.6-3.5,4.6V259H736v-17.8h3.5v1.7c0.8-1.2,2.3-2.1,4.1-2.1
		c1.4,0,2.3,0.3,3,0.7L745.7,244.9z"/>
	<path class="st2" d="M763.8,251.3H752c0.4,3.4,2.3,4.9,4.5,4.9c1.5,0,2.7-0.5,3.9-1.4l2.1,2.2c-1.6,1.5-3.4,2.3-6.2,2.3
		c-4.2,0-7.7-3.4-7.7-9.3c0-6.1,3.2-9.3,7.8-9.3c5.1,0,7.5,4.1,7.5,8.9C763.9,250.4,763.8,250.9,763.8,251.3z M756.1,243.9
		c-2.3,0-3.8,1.6-4.1,4.5h8.3C760.2,246,759,243.9,756.1,243.9z"/>
	<path class="st2" d="M778.2,259v-1.8c-1.2,1.2-3,2.1-4.9,2.1c-2.9,0-6.2-1.6-6.2-6c0-4,3.1-5.8,7.1-5.8c1.7,0,3,0.2,4,0.7v-1.3
		c0-1.9-1.2-3-3.4-3c-1.8,0-3.3,0.3-4.7,1.1l-1.4-2.7c1.7-1.1,3.6-1.6,6.1-1.6c4,0,6.7,1.9,6.7,6V259H778.2z M778.2,251.4
		c-1-0.5-2.2-0.8-4.1-0.8c-2.2,0-3.7,1-3.7,2.7c0,1.8,1.1,3,3.4,3c1.9,0,3.5-1.2,4.3-2.3V251.4z"/>
	<path class="st2" d="M797.9,246.3c-1.5-1.5-2.8-2.2-4.4-2.2c-2.5,0-4.2,2.3-4.2,5.9c0,3.5,1.5,6,4.3,6c1.7,0,2.7-0.7,4-2.2l2.2,2.2
		c-1.4,1.8-3.2,3.3-6.4,3.3c-4.4,0-7.7-3.7-7.7-9.2c0-5.9,3.5-9.3,7.8-9.3c2.6,0,4.7,1.1,6.3,3L797.9,246.3z"/>
	<path class="st2" d="M815.3,259v-10.1c0-3.6-1.4-4.9-3.7-4.9c-2.3,0-3.7,1.7-3.7,4.6V259h-3.5v-22.9l3.5-1.8v8.6
		c0.9-1.3,2.7-2.1,4.5-2.1c4.1,0,6.4,2.7,6.4,8V259H815.3z"/>
	<path class="st2" d="M838.2,251.3h-11.8c0.4,3.4,2.3,4.9,4.5,4.9c1.5,0,2.7-0.5,3.9-1.4l2.1,2.2c-1.6,1.5-3.4,2.3-6.2,2.3
		c-4.2,0-7.7-3.4-7.7-9.3c0-6.1,3.2-9.3,7.8-9.3c5.1,0,7.5,4.1,7.5,8.9C838.3,250.4,838.2,250.9,838.2,251.3z M830.5,243.9
		c-2.3,0-3.8,1.6-4.1,4.5h8.3C834.6,246,833.4,243.9,830.5,243.9z"/>
	<path class="st2" d="M853.4,259v-1.7c-1.3,1.2-2.8,2.1-4.7,2.1c-3.8,0-6.9-2.8-6.9-9.6c0-6.1,3.3-9,7-9c1.8,0,3.5,1,4.5,2V236
		l3.5-1.8V259H853.4z M853.4,246.4c-0.8-1.1-2.4-2.3-4.2-2.3c-2.5,0-3.9,1.9-3.9,5.7c0,4.5,1.4,6.5,4,6.5c1.7,0,3.1-1.1,4-2.3V246.4
		z"/>
	<path class="st2" d="M862.8,262.7l-1.8-1.5c3-3.4,4.7-7.3,4.7-12.4c0-5.6-1.8-9.3-4.7-12.6l1.8-1.5c3.4,3.2,6.6,7.8,6.6,13.9
		C869.5,254.9,866.3,259.4,862.8,262.7z"/>
</g>
<g>
	<path class="st2" d="M1074,61c-6.2,0-10.1-5.1-10.1-12.3c0-7.2,3.9-12.3,10.1-12.3c3.9,0,6.5,1.6,8.1,4.5l-3.2,2
		c-1.2-1.9-2.5-2.9-4.9-2.9c-4.1,0-6.4,3.4-6.4,8.7s2.2,8.7,6.4,8.7c2.5,0,4-1,5.2-3l3,2C1080.5,59.4,1077.6,61,1074,61z"/>
	<path class="st2" d="M1096.5,60.6v-1.8c-1.2,1.2-3,2.1-4.9,2.1c-2.9,0-6.2-1.6-6.2-6c0-4,3.1-5.8,7.1-5.8c1.7,0,3,0.2,4,0.7v-1.3
		c0-1.9-1.2-3-3.4-3c-1.8,0-3.3,0.3-4.7,1.1l-1.4-2.7c1.7-1.1,3.6-1.6,6.1-1.6c4,0,6.7,1.9,6.7,6v12.2H1096.5z M1096.5,53
		c-1-0.5-2.2-0.8-4.1-0.8c-2.2,0-3.7,1-3.7,2.7c0,1.8,1.1,3,3.4,3c1.9,0,3.5-1.2,4.3-2.3V53z"/>
	<path class="st2" d="M1105.2,60.6V37.7l3.5-1.8v24.8H1105.2z"/>
	<path class="st2" d="M1114.2,60.6V37.7l3.5-1.8v24.8H1114.2z"/>
	<path class="st2" d="M1143.4,47.9c-1.5-1.5-2.8-2.2-4.4-2.2c-2.5,0-4.2,2.3-4.2,5.9c0,3.5,1.5,6,4.3,6c1.7,0,2.7-0.7,4-2.2l2.2,2.2
		c-1.4,1.8-3.2,3.3-6.4,3.3c-4.4,0-7.7-3.7-7.7-9.2c0-5.9,3.5-9.3,7.8-9.3c2.6,0,4.7,1.1,6.3,3L1143.4,47.9z"/>
	<path class="st2" d="M1151.9,40.4c-1.3,0-2.3-1-2.3-2.2c0-1.3,1-2.3,2.3-2.3c1.2,0,2.2,1,2.2,2.3
		C1154.1,39.4,1153.1,40.4,1151.9,40.4z M1150.1,60.6V42.8h3.5v17.8H1150.1z"/>
	<path class="st2" d="M1168.6,46.5c-0.7-0.4-1.5-0.6-2.7-0.6c-2.2,0-3.5,1.6-3.5,4.6v10.2h-3.5V42.8h3.5v1.7
		c0.8-1.2,2.3-2.1,4.1-2.1c1.4,0,2.3,0.3,3,0.7L1168.6,46.5z"/>
	<path class="st2" d="M1183.5,47.9c-1.5-1.5-2.8-2.2-4.4-2.2c-2.5,0-4.2,2.3-4.2,5.9c0,3.5,1.5,6,4.3,6c1.7,0,2.7-0.7,4-2.2l2.2,2.2
		c-1.4,1.8-3.2,3.3-6.4,3.3c-4.4,0-7.7-3.7-7.7-9.2c0-5.9,3.5-9.3,7.8-9.3c2.6,0,4.7,1.1,6.3,3L1183.5,47.9z"/>
	<path class="st2" d="M1200.6,60.6v-1.7c-0.9,1.3-2.7,2.1-4.5,2.1c-4.1,0-6.4-2.7-6.4-8V42.8h3.5v10.1c0,3.6,1.4,4.9,3.7,4.9
		c2.3,0,3.7-1.7,3.7-4.6V42.8h3.5v17.8H1200.6z"/>
	<path class="st2" d="M1211.2,40.4c-1.3,0-2.3-1-2.3-2.2c0-1.3,1-2.3,2.3-2.3c1.2,0,2.2,1,2.2,2.3
		C1213.5,39.4,1212.4,40.4,1211.2,40.4z M1209.5,60.6V42.8h3.5v17.8H1209.5z"/>
	<path class="st2" d="M1226.8,60.2c-0.8,0.5-2,0.8-3.4,0.8c-2.5,0-4-1.5-4-4.7V46h-2.5v-3.2h2.5v-5.1l3.4-1.8v6.9h4.4V46h-4.4v9.7
		c0,1.7,0.5,2.1,1.8,2.1c0.9,0,1.9-0.3,2.6-0.7L1226.8,60.2z"/>
	<path class="st2" d="M1248.2,61c-4.5,0-7.9-3.7-7.9-9.3c0-5.8,3.5-9.3,8-9.3c4.6,0,8,3.6,8,9.2C1256.2,57.5,1252.8,61,1248.2,61z
		 M1248.1,45.7c-2.7,0-4.3,2.3-4.3,5.9c0,3.9,1.8,6.1,4.5,6.1s4.4-2.7,4.4-5.9C1252.7,48.1,1251,45.7,1248.1,45.7z"/>
	<path class="st2" d="M1268.5,61c-1.8,0-3.5-1-4.5-2v6.4l-3.5,1.8V42.8h3.5v1.7c1.3-1.2,2.8-2.1,4.7-2.1c3.8,0,6.9,2.8,6.9,9.6
		C1275.5,58.1,1272.2,61,1268.5,61z M1268,45.6c-1.7,0-3.1,1.1-4,2.3v7.5c0.8,1.1,2.4,2.3,4.2,2.3c2.5,0,3.9-1.9,3.9-5.7
		C1272,47.6,1270.6,45.6,1268,45.6z"/>
	<path class="st2" d="M1294.3,52.9h-11.8c0.4,3.4,2.3,4.9,4.5,4.9c1.5,0,2.7-0.5,3.9-1.4l2.1,2.2c-1.6,1.5-3.4,2.3-6.2,2.3
		c-4.2,0-7.7-3.4-7.7-9.3c0-6.1,3.2-9.3,7.8-9.3c5.1,0,7.5,4.1,7.5,8.9C1294.4,52,1294.3,52.6,1294.3,52.9z M1286.7,45.5
		c-2.3,0-3.8,1.6-4.1,4.5h8.3C1290.7,47.6,1289.6,45.5,1286.7,45.5z"/>
	<path class="st2" d="M1309.6,60.6V50.5c0-3.6-1.4-4.9-3.7-4.9c-2.3,0-3.7,1.7-3.7,4.6v10.4h-3.5V42.8h3.5v1.7
		c0.9-1.3,2.7-2.1,4.5-2.1c4.1,0,6.4,2.7,6.4,8v10.2H1309.6z"/>
</g>
<g>
	<path class="st2" d="M597.3,887.4c-3.5,0-6.5-1.5-8.5-3.8l2.5-2.5c1.6,1.7,3.9,2.8,6.2,2.8c3.3,0,4.9-1.2,4.9-3.5
		c0-1.8-1.4-2.8-5.4-3.9c-5-1.5-7.4-2.8-7.4-7c0-4.1,3.5-6.6,7.9-6.6c3.2,0,5.7,1.2,7.8,3.2l-2.5,2.5c-1.5-1.5-3.2-2.3-5.5-2.3
		c-2.8,0-4,1.4-4,3c0,1.7,1.1,2.5,5.2,3.7c4.7,1.4,7.6,2.9,7.6,7.2C606.1,884.5,603.3,887.4,597.3,887.4z"/>
	<path class="st2" d="M621.3,887v-1.7c-0.9,1.3-2.7,2.1-4.5,2.1c-4.1,0-6.4-2.7-6.4-8v-10.2h3.5v10.1c0,3.6,1.4,4.9,3.7,4.9
		c2.3,0,3.7-1.7,3.7-4.6v-10.4h3.5V887H621.3z"/>
	<path class="st2" d="M641.1,874.3c-1.5-1.5-2.8-2.2-4.4-2.2c-2.5,0-4.2,2.3-4.2,5.9c0,3.5,1.5,6,4.3,6c1.7,0,2.7-0.7,4-2.2l2.2,2.2
		c-1.4,1.8-3.2,3.3-6.4,3.3c-4.4,0-7.7-3.7-7.7-9.2c0-5.9,3.5-9.3,7.8-9.3c2.6,0,4.7,1.1,6.3,3L641.1,874.3z"/>
	<path class="st2" d="M658.3,874.3c-1.5-1.5-2.8-2.2-4.4-2.2c-2.5,0-4.2,2.3-4.2,5.9c0,3.5,1.5,6,4.3,6c1.7,0,2.7-0.7,4-2.2l2.2,2.2
		c-1.4,1.8-3.2,3.3-6.4,3.3c-4.4,0-7.7-3.7-7.7-9.2c0-5.9,3.5-9.3,7.8-9.3c2.6,0,4.7,1.1,6.3,3L658.3,874.3z"/>
	<path class="st2" d="M678.6,879.3h-11.8c0.4,3.4,2.3,4.9,4.5,4.9c1.5,0,2.7-0.5,3.9-1.4l2.1,2.2c-1.6,1.5-3.4,2.3-6.2,2.3
		c-4.2,0-7.7-3.4-7.7-9.3c0-6.1,3.2-9.3,7.8-9.3c5.1,0,7.5,4.1,7.5,8.9C678.7,878.4,678.7,878.9,678.6,879.3z M671,871.9
		c-2.3,0-3.8,1.6-4.1,4.5h8.3C675,874,673.9,871.9,671,871.9z"/>
	<path class="st2" d="M688.5,887.4c-2.4,0-5-1-6.8-2.3l1.6-2.7c1.7,1.2,3.5,1.8,5.2,1.8c2.2,0,3.3-0.7,3.3-2c0-1.4-1.6-2-4.1-3
		c-3.8-1.5-5.2-2.8-5.2-5.6c0-3.2,2.5-4.9,6.1-4.9c2.2,0,4.5,0.8,6.1,2l-1.5,2.7c-1.5-1-2.9-1.5-4.6-1.5c-1.7,0-2.4,0.7-2.4,1.6
		c0,0.9,0.6,1.5,3.3,2.6c4,1.5,6,2.6,6,6C695.2,886,692,887.4,688.5,887.4z"/>
	<path class="st2" d="M705.2,887.4c-2.4,0-5-1-6.8-2.3l1.6-2.7c1.7,1.2,3.5,1.8,5.2,1.8c2.2,0,3.3-0.7,3.3-2c0-1.4-1.6-2-4.1-3
		c-3.8-1.5-5.2-2.8-5.2-5.6c0-3.2,2.5-4.9,6.1-4.9c2.2,0,4.5,0.8,6.1,2l-1.5,2.7c-1.5-1-2.9-1.5-4.6-1.5c-1.7,0-2.4,0.7-2.4,1.6
		c0,0.9,0.6,1.5,3.3,2.6c4,1.5,6,2.6,6,6C711.9,886,708.7,887.4,705.2,887.4z"/>
</g>
<g>
	<path class="st2" d="M951.9,540.4v6.2h6.8v3.5h-6.8v10.6h-3.6v-23.8h15.3v3.5H951.9z"/>
	<path class="st2" d="M974.3,560.7v-1.8c-1.2,1.2-3,2.1-4.9,2.1c-2.9,0-6.2-1.6-6.2-6c0-4,3.1-5.8,7.1-5.8c1.7,0,3,0.2,4,0.7v-1.3
		c0-1.9-1.2-3-3.4-3c-1.8,0-3.3,0.3-4.7,1.1l-1.4-2.7c1.7-1.1,3.6-1.6,6.1-1.6c4,0,6.7,1.9,6.7,6v12.2H974.3z M974.3,553.1
		c-1-0.5-2.2-0.8-4.1-0.8c-2.2,0-3.7,1-3.7,2.7c0,1.8,1.1,3,3.4,3c1.9,0,3.5-1.2,4.3-2.3V553.1z"/>
	<path class="st2" d="M984.7,540.5c-1.3,0-2.3-1-2.3-2.2c0-1.3,1-2.3,2.3-2.3c1.2,0,2.2,1,2.2,2.3
		C986.9,539.5,985.9,540.5,984.7,540.5z M982.9,560.7v-17.8h3.5v17.8H982.9z"/>
	<path class="st2" d="M991.9,560.7v-22.9l3.5-1.8v24.8H991.9z"/>
</g>
<g>
	<path class="st2" d="M1202.9,551l4.9,9.7h-4.1l-4.7-9.4h-5.4v9.4h-3.5v-23.8h10.4c4.1,0,7.6,2.2,7.6,7.1
		C1208.2,547.8,1206.2,550.2,1202.9,551z M1200.5,540.3h-6.9v7.6h6.9c2.4,0,4-1.2,4-3.8C1204.6,541.6,1202.9,540.3,1200.5,540.3z"/>
	<path class="st2" d="M1226.7,553h-11.8c0.4,3.4,2.3,4.9,4.5,4.9c1.5,0,2.7-0.5,3.9-1.4l2.1,2.2c-1.6,1.5-3.4,2.3-6.2,2.3
		c-4.2,0-7.7-3.4-7.7-9.3c0-6.1,3.2-9.3,7.8-9.3c5.1,0,7.5,4.1,7.5,8.9C1226.8,552.1,1226.7,552.6,1226.7,553z M1219.1,545.6
		c-2.3,0-3.8,1.6-4.1,4.5h8.3C1223.1,547.7,1222,545.6,1219.1,545.6z"/>
	<path class="st2" d="M1236.6,561.1c-2.4,0-5-1-6.8-2.3l1.6-2.7c1.7,1.2,3.5,1.8,5.2,1.8c2.2,0,3.3-0.7,3.3-2c0-1.4-1.6-2-4.1-3
		c-3.8-1.5-5.2-2.8-5.2-5.6c0-3.2,2.5-4.9,6.1-4.9c2.2,0,4.5,0.8,6.1,2l-1.5,2.7c-1.5-1-2.9-1.5-4.6-1.5c-1.7,0-2.4,0.7-2.4,1.6
		c0,0.9,0.6,1.5,3.3,2.6c4,1.5,6,2.6,6,6C1243.3,559.7,1240.1,561.1,1236.6,561.1z"/>
	<path class="st2" d="M1261.8,553H1250c0.4,3.4,2.3,4.9,4.5,4.9c1.5,0,2.7-0.5,3.9-1.4l2.1,2.2c-1.6,1.5-3.4,2.3-6.2,2.3
		c-4.2,0-7.7-3.4-7.7-9.3c0-6.1,3.2-9.3,7.8-9.3c5.1,0,7.5,4.1,7.5,8.9C1261.9,552.1,1261.9,552.6,1261.8,553z M1254.2,545.6
		c-2.3,0-3.8,1.6-4.1,4.5h8.3C1258.2,547.7,1257.1,545.6,1254.2,545.6z"/>
	<path class="st2" d="M1274.5,560.2c-0.8,0.5-2,0.8-3.4,0.8c-2.5,0-4-1.5-4-4.7V546h-2.5v-3.2h2.5v-5.1l3.4-1.8v6.9h4.4v3.2h-4.4
		v9.7c0,1.7,0.5,2.1,1.8,2.1c0.9,0,1.9-0.3,2.6-0.7L1274.5,560.2z"/>
	<path class="st2" d="M1297.4,560.2c-0.8,0.5-2,0.8-3.4,0.8c-2.5,0-4-1.5-4-4.7V546h-2.5v-3.2h2.5v-5.1l3.4-1.8v6.9h4.4v3.2h-4.4
		v9.7c0,1.7,0.5,2.1,1.8,2.1c0.9,0,1.9-0.3,2.6-0.7L1297.4,560.2z"/>
	<path class="st2" d="M1304.5,540.5c-1.3,0-2.3-1-2.3-2.2c0-1.3,1-2.3,2.3-2.3c1.2,0,2.2,1,2.2,2.3
		C1306.8,539.5,1305.8,540.5,1304.5,540.5z M1302.8,560.7v-17.8h3.5v17.8H1302.8z"/>
	<path class="st2" d="M1332.3,560.7v-10.1c0-3.6-1.1-4.9-3.4-4.9c-2.3,0-3.4,1.7-3.4,4.6v10.4h-3.5v-10.1c0-3.6-1.1-4.9-3.4-4.9
		c-2.3,0-3.4,1.7-3.4,4.6v10.4h-3.5v-17.8h3.5v1.7c0.9-1.3,2.4-2.1,4.2-2.1c2.4,0,3.9,0.9,4.9,2.6c1.3-1.6,2.7-2.6,5.5-2.6
		c4.1,0,6.1,2.7,6.1,8v10.2H1332.3z"/>
	<path class="st2" d="M1355.3,553h-11.8c0.4,3.4,2.3,4.9,4.5,4.9c1.5,0,2.7-0.5,3.9-1.4l2.1,2.2c-1.6,1.5-3.4,2.3-6.2,2.3
		c-4.2,0-7.7-3.4-7.7-9.3c0-6.1,3.2-9.3,7.8-9.3c5.1,0,7.5,4.1,7.5,8.9C1355.4,552.1,1355.3,552.6,1355.3,553z M1347.6,545.6
		c-2.3,0-3.8,1.6-4.1,4.5h8.3C1351.7,547.7,1350.5,545.6,1347.6,545.6z"/>
	<path class="st2" d="M1366.7,561.1c-4.5,0-7.9-3.7-7.9-9.3c0-5.8,3.5-9.3,8-9.3c4.6,0,8,3.6,8,9.2
		C1374.8,557.6,1371.3,561.1,1366.7,561.1z M1366.7,545.8c-2.7,0-4.3,2.3-4.3,5.9c0,3.9,1.8,6.1,4.5,6.1c2.7,0,4.4-2.7,4.4-5.9
		C1371.2,548.1,1369.5,545.8,1366.7,545.8z"/>
	<path class="st2" d="M1389.8,560.7V559c-0.9,1.3-2.7,2.1-4.5,2.1c-4.1,0-6.4-2.7-6.4-8v-10.2h3.5v10.1c0,3.6,1.4,4.9,3.7,4.9
		c2.3,0,3.7-1.7,3.7-4.6v-10.4h3.5v17.8H1389.8z"/>
	<path class="st2" d="M1407,560.2c-0.8,0.5-2,0.8-3.4,0.8c-2.5,0-4-1.5-4-4.7V546h-2.5v-3.2h2.5v-5.1l3.4-1.8v6.9h4.4v3.2h-4.4v9.7
		c0,1.7,0.5,2.1,1.8,2.1c0.9,0,1.9-0.3,2.6-0.7L1407,560.2z"/>
</g>
<g>
</g>
</svg>
